<svg width="34" height="34" viewBox="0 0 34 34" fill="none" xmlns="http://www.w3.org/2000/svg">
<path d="M33 16.9653V31.4169C33 32.3115 32.0702 32.9997 30.9855 32.9997H3.01453C1.8523 32.9997 1 32.3115 1 31.4169V13.5244C1 12.9739 1.61985 12.4922 2.39467 12.4922H8.12833C8.90315 12.4922 9.523 12.9739 9.523 13.5244C9.523 14.1438 10.1429 14.6943 10.8402 14.6943H30.1332C31.6053 14.6943 33 15.7266 33 16.9653Z" stroke="#C9982C" stroke-miterlimit="10" stroke-linecap="round" stroke-linejoin="round"/>
<path d="M4.64062 17.4473H6.73263V19.3053H4.64062V17.4473Z" stroke="#C9982C" stroke-miterlimit="10" stroke-linecap="round" stroke-linejoin="round"/>
<path d="M9.28906 17.4473H11.3811V19.3053H9.28906V17.4473Z" stroke="#C9982C" stroke-miterlimit="10" stroke-linecap="round" stroke-linejoin="round"/>
<path d="M13.9375 17.4473H16.0295V19.3053H13.9375V17.4473Z" stroke="#C9982C" stroke-miterlimit="10" stroke-linecap="round" stroke-linejoin="round"/>
<path d="M26.4141 29.9707H19.8281" stroke="#C9982C" stroke-miterlimit="10" stroke-linecap="round" stroke-linejoin="round"/>
<path d="M30.2893 29.9707H28.4297" stroke="#C9982C" stroke-miterlimit="10" stroke-linecap="round" stroke-linejoin="round"/>
<path d="M28.1962 27.2871H19.8281" stroke="#C9982C" stroke-miterlimit="10" stroke-linecap="round" stroke-linejoin="round"/>
<path d="M30.2882 24.6719H19.8281" stroke="#C9982C" stroke-miterlimit="10" stroke-linecap="round" stroke-linejoin="round"/>
<path d="M24.0883 6.50559V14.6948H10.6839C9.98659 14.6948 9.36673 14.1443 9.36673 13.5249C9.36673 12.9744 8.74688 12.4927 7.97206 12.4927H7.42969V6.50559C7.42969 5.54215 8.43695 4.78516 9.59918 4.78516H21.9188C23.081 4.78516 24.0883 5.54215 24.0883 6.50559Z" stroke="#C9982C" stroke-miterlimit="10" stroke-linecap="round" stroke-linejoin="round"/>
<path d="M10.2969 6.7793H21.2993" stroke="#C9982C" stroke-miterlimit="10" stroke-linecap="round" stroke-linejoin="round"/>
<path d="M18.4297 8.63672H21.2965" stroke="#C9982C" stroke-miterlimit="10" stroke-linecap="round" stroke-linejoin="round"/>
<path d="M10.2969 8.63672H16.0305" stroke="#C9982C" stroke-miterlimit="10" stroke-linecap="round" stroke-linejoin="round"/>
<path d="M13.7812 10.5645H21.297" stroke="#C9982C" stroke-miterlimit="10" stroke-linecap="round" stroke-linejoin="round"/>
<path d="M10.2969 10.5645H11.6915" stroke="#C9982C" stroke-miterlimit="10" stroke-linecap="round" stroke-linejoin="round"/>
<path d="M18.6641 12.4219H21.2984" stroke="#C9982C" stroke-miterlimit="10" stroke-linecap="round" stroke-linejoin="round"/>
<path d="M11.6875 12.4219H16.5689" stroke="#C9982C" stroke-miterlimit="10" stroke-linecap="round" stroke-linejoin="round"/>
<path d="M26.4867 4.64816V14.6955H24.0848V6.50623C24.0848 5.54279 23.0775 4.7858 21.9153 4.7858H9.82812V4.64816C9.82812 3.68472 10.8354 2.92773 11.9976 2.92773H24.3172C25.4795 2.92773 26.4867 3.68472 26.4867 4.64816Z" stroke="#C9982C" stroke-miterlimit="10" stroke-linecap="round" stroke-linejoin="round"/>
<path d="M28.893 2.72043V14.6258H26.491V4.64731C26.491 3.68387 25.4838 2.92688 24.3215 2.92688H12.2344V2.72043C12.2344 1.75699 13.2416 1 14.4039 1H26.7235C27.8857 1.06882 28.893 1.82581 28.893 2.72043Z" stroke="#C9982C" stroke-miterlimit="10" stroke-linecap="round" stroke-linejoin="round"/>
</svg>
