<svg width="13" height="15" viewBox="0 0 13 15" fill="none" xmlns="http://www.w3.org/2000/svg">
<path d="M10.8692 2.42578H2.17584C1.8642 2.42648 1.56553 2.55059 1.34516 2.77095C1.1248 2.99131 1.0007 3.28999 1 3.60163V12.2949C1.0007 12.6066 1.1248 12.9053 1.34516 13.1256C1.56553 13.346 1.8642 13.4701 2.17584 13.4708H10.8692C11.1808 13.4701 11.4795 13.346 11.6998 13.1256C11.9202 12.9053 12.0443 12.6066 12.045 12.2949V3.60163C12.0443 3.28999 11.9202 2.99131 11.6998 2.77095C11.4795 2.55059 11.1808 2.42648 10.8692 2.42578Z" stroke="#C9982C" stroke-width="1.5" stroke-miterlimit="10" stroke-linecap="round"/>
<path d="M3.36328 6.31055H6.16417" stroke="#C9982C" stroke-width="1.5" stroke-miterlimit="10" stroke-linecap="round"/>
<path d="M3.36328 8.72852H9.42747" stroke="#C9982C" stroke-width="1.5" stroke-miterlimit="10" stroke-linecap="round"/>
<path d="M4.81641 1V3.5895" stroke="#C9982C" stroke-width="1.5" stroke-miterlimit="10" stroke-linecap="round"/>
<path d="M8.22656 1V3.5895" stroke="#C9982C" stroke-width="1.5" stroke-miterlimit="10" stroke-linecap="round"/>
</svg>
