<svg width="32" height="32" viewBox="0 0 32 32" fill="none" xmlns="http://www.w3.org/2000/svg">
<g clip-path="url(#clip0_1_15544)">
<path d="M10.8438 8.96875H21.1562C21.4152 8.96875 21.625 8.75894 21.625 8.5V1.9375C21.625 1.67856 21.4152 1.46875 21.1562 1.46875H15.599L14.0212 0.169437C13.9373 0.100313 13.8319 0.0625 13.7232 0.0625H10.8438C10.5848 0.0625 10.375 0.272312 10.375 0.53125V8.5C10.375 8.75894 10.5848 8.96875 10.8438 8.96875ZM11.3125 8.03125V4.28125H20.6875V8.03125H11.3125ZM13.5551 1L15.1329 2.29931C15.2168 2.36844 15.3221 2.40625 15.4309 2.40625H20.6875V3.34375H11.3125V1H13.5551Z" fill="#C9982C"/>
<path d="M9.4375 19.2812H0.53125C0.272312 19.2812 0.0625 19.4911 0.0625 19.75V31.4688C0.0625 31.7277 0.272312 31.9375 0.53125 31.9375H9.4375C9.69644 31.9375 9.90625 31.7277 9.90625 31.4688V19.75C9.90625 19.4911 9.69644 19.2812 9.4375 19.2812ZM8.96875 31H1V20.2188H8.96875V31Z" fill="#C9982C"/>
<path d="M31.4688 19.2812H22.5625C22.3036 19.2812 22.0938 19.4911 22.0938 19.75V31.4688C22.0938 31.7277 22.3036 31.9375 22.5625 31.9375H31.4688C31.7277 31.9375 31.9375 31.7277 31.9375 31.4688V19.75C31.9375 19.4911 31.7277 19.2812 31.4688 19.2812ZM31 31H23.0312V20.2188H31V31Z" fill="#C9982C"/>
<path d="M20.4531 19.2812H11.5469C11.2879 19.2812 11.0781 19.4911 11.0781 19.75V31.4688C11.0781 31.7277 11.2879 31.9375 11.5469 31.9375H20.4531C20.7121 31.9375 20.9219 31.7277 20.9219 31.4688V19.75C20.9219 19.4911 20.7121 19.2812 20.4531 19.2812ZM19.9844 31H12.0156V20.2188H19.9844V31Z" fill="#C9982C"/>
<path d="M4.51562 16.3881V17.875C4.51562 18.1339 4.72544 18.3438 4.98438 18.3438C5.24331 18.3438 5.45312 18.1339 5.45312 17.875V16.3881C5.852 16.2466 6.1685 15.9301 6.31 15.5312H15.5312V17.875C15.5312 18.1339 15.7411 18.3438 16 18.3438C16.2589 18.3438 16.4688 18.1339 16.4688 17.875V15.5312H25.9244C26.0659 15.9301 26.3824 16.2466 26.7812 16.3881V17.875C26.7812 18.1339 26.9911 18.3438 27.25 18.3438C27.5089 18.3438 27.7188 18.1339 27.7188 17.875V16.3881C28.2643 16.1946 28.6562 15.6736 28.6562 15.0625C28.6562 14.2871 28.0254 13.6562 27.25 13.6562C26.6389 13.6562 26.1179 14.0482 25.9244 14.5938H16.4688V12.6381C17.0143 12.4446 17.4062 11.9236 17.4062 11.3125C17.4062 10.5371 16.7754 9.90625 16 9.90625C15.2246 9.90625 14.5938 10.5371 14.5938 11.3125C14.5938 11.9236 14.9857 12.4446 15.5312 12.6381V14.5938H6.31C6.1165 14.0482 5.59544 13.6562 4.98438 13.6562C4.209 13.6562 3.57812 14.2871 3.57812 15.0625C3.57812 15.6736 3.97006 16.1946 4.51562 16.3881ZM27.25 14.5938C27.5085 14.5938 27.7188 14.804 27.7188 15.0625C27.7188 15.321 27.5085 15.5312 27.25 15.5312C26.9915 15.5312 26.7812 15.321 26.7812 15.0625C26.7812 14.804 26.9915 14.5938 27.25 14.5938ZM16 10.8438C16.2585 10.8438 16.4688 11.054 16.4688 11.3125C16.4688 11.571 16.2585 11.7812 16 11.7812C15.7415 11.7812 15.5312 11.571 15.5312 11.3125C15.5312 11.054 15.7415 10.8438 16 10.8438ZM4.98438 14.5938C5.24287 14.5938 5.45312 14.804 5.45312 15.0625C5.45312 15.321 5.24287 15.5312 4.98438 15.5312C4.72588 15.5312 4.51562 15.321 4.51562 15.0625C4.51562 14.804 4.72588 14.5938 4.98438 14.5938Z" fill="#C9982C"/>
<path d="M2.40625 22.5625H7.5625C7.82144 22.5625 8.03125 22.3527 8.03125 22.0938C8.03125 21.8348 7.82144 21.625 7.5625 21.625H2.40625C2.14731 21.625 1.9375 21.8348 1.9375 22.0938C1.9375 22.3527 2.14731 22.5625 2.40625 22.5625Z" fill="#C9982C"/>
<path d="M2.40625 24.9062H7.5625C7.82144 24.9062 8.03125 24.6964 8.03125 24.4375C8.03125 24.1786 7.82144 23.9688 7.5625 23.9688H2.40625C2.14731 23.9688 1.9375 24.1786 1.9375 24.4375C1.9375 24.6964 2.14731 24.9062 2.40625 24.9062Z" fill="#C9982C"/>
<path d="M2.40625 27.25H7.5625C7.82144 27.25 8.03125 27.0402 8.03125 26.7812C8.03125 26.5223 7.82144 26.3125 7.5625 26.3125H2.40625C2.14731 26.3125 1.9375 26.5223 1.9375 26.7812C1.9375 27.0402 2.14731 27.25 2.40625 27.25Z" fill="#C9982C"/>
<path d="M2.40625 29.5938H4.75C5.00894 29.5938 5.21875 29.3839 5.21875 29.125C5.21875 28.8661 5.00894 28.6562 4.75 28.6562H2.40625C2.14731 28.6562 1.9375 28.8661 1.9375 29.125C1.9375 29.3839 2.14731 29.5938 2.40625 29.5938Z" fill="#C9982C"/>
<path d="M13.4219 22.5625H18.5781C18.8371 22.5625 19.0469 22.3527 19.0469 22.0938C19.0469 21.8348 18.8371 21.625 18.5781 21.625H13.4219C13.1629 21.625 12.9531 21.8348 12.9531 22.0938C12.9531 22.3527 13.1629 22.5625 13.4219 22.5625Z" fill="#C9982C"/>
<path d="M13.4219 24.9062H18.5781C18.8371 24.9062 19.0469 24.6964 19.0469 24.4375C19.0469 24.1786 18.8371 23.9688 18.5781 23.9688H13.4219C13.1629 23.9688 12.9531 24.1786 12.9531 24.4375C12.9531 24.6964 13.1629 24.9062 13.4219 24.9062Z" fill="#C9982C"/>
<path d="M13.4219 27.25H18.5781C18.8371 27.25 19.0469 27.0402 19.0469 26.7812C19.0469 26.5223 18.8371 26.3125 18.5781 26.3125H13.4219C13.1629 26.3125 12.9531 26.5223 12.9531 26.7812C12.9531 27.0402 13.1629 27.25 13.4219 27.25Z" fill="#C9982C"/>
<path d="M13.4219 29.5938H15.7656C16.0246 29.5938 16.2344 29.3839 16.2344 29.125C16.2344 28.8661 16.0246 28.6562 15.7656 28.6562H13.4219C13.1629 28.6562 12.9531 28.8661 12.9531 29.125C12.9531 29.3839 13.1629 29.5938 13.4219 29.5938Z" fill="#C9982C"/>
<path d="M24.4375 22.5625H29.5938C29.8527 22.5625 30.0625 22.3527 30.0625 22.0938C30.0625 21.8348 29.8527 21.625 29.5938 21.625H24.4375C24.1786 21.625 23.9688 21.8348 23.9688 22.0938C23.9688 22.3527 24.1786 22.5625 24.4375 22.5625Z" fill="#C9982C"/>
<path d="M24.4375 24.9062H29.5938C29.8527 24.9062 30.0625 24.6964 30.0625 24.4375C30.0625 24.1786 29.8527 23.9688 29.5938 23.9688H24.4375C24.1786 23.9688 23.9688 24.1786 23.9688 24.4375C23.9688 24.6964 24.1786 24.9062 24.4375 24.9062Z" fill="#C9982C"/>
<path d="M24.4375 27.25H29.5938C29.8527 27.25 30.0625 27.0402 30.0625 26.7812C30.0625 26.5223 29.8527 26.3125 29.5938 26.3125H24.4375C24.1786 26.3125 23.9688 26.5223 23.9688 26.7812C23.9688 27.0402 24.1786 27.25 24.4375 27.25Z" fill="#C9982C"/>
<path d="M24.4375 29.5938H26.7812C27.0402 29.5938 27.25 29.3839 27.25 29.125C27.25 28.8661 27.0402 28.6562 26.7812 28.6562H24.4375C24.1786 28.6562 23.9688 28.8661 23.9688 29.125C23.9688 29.3839 24.1786 29.5938 24.4375 29.5938Z" fill="#C9982C"/>
</g>
<defs>
<clipPath id="clip0_1_15544">
<rect width="32" height="32" fill="white"/>
</clipPath>
</defs>
</svg>
