<svg width="32" height="32" viewBox="0 0 32 32" fill="none" xmlns="http://www.w3.org/2000/svg">
<path opacity="0.5" d="M22.4583 12.6089C25.2677 12.6245 26.7892 12.7491 27.7817 13.7416C28.9167 14.8766 28.9167 16.7033 28.9167 20.3566V21.6483C28.9167 25.3016 28.9167 27.1284 27.7817 28.2633C26.6467 29.3983 24.82 29.3983 21.1667 29.3983H10.8333C7.17994 29.3983 5.35325 29.3983 4.21829 28.2633C3.08333 27.1284 3.08333 25.3016 3.08333 21.6483V20.3566C3.08333 16.7033 3.08333 14.8766 4.21829 13.7416C5.21078 12.7491 6.73225 12.6245 9.54166 12.6089" stroke="white" stroke-width="2" stroke-linecap="round"/>
<path d="M16 3.5647V20.3564M16 20.3564L12.125 15.8355M16 20.3564L19.875 15.8355" stroke="white" stroke-width="2" stroke-linecap="round" stroke-linejoin="round"/>
</svg>
