<svg width="32" height="32" viewBox="0 0 32 32" fill="none" xmlns="http://www.w3.org/2000/svg">
<g clip-path="url(#clip0_1_15484)">
<path d="M6.70914 21.6777C5.95663 21.6777 5.23361 21.9096 4.61719 22.3481L5.21597 23.1891C5.65623 22.8755 6.17235 22.71 6.70914 22.71C8.132 22.71 9.28974 23.8677 9.28974 25.2906C9.28974 25.8274 9.12417 26.3435 8.81067 26.7838L9.65163 27.3825C10.0901 26.7661 10.322 26.0431 10.322 25.2906C10.322 23.2989 8.70079 21.6777 6.70914 21.6777Z" fill="#C9982C"/>
<path d="M6.7105 27.8718C5.28764 27.8718 4.1299 26.714 4.1299 25.2912C4.1299 24.7544 4.29547 24.2383 4.60897 23.798L3.76801 23.1992C3.32951 23.8156 3.09766 24.5387 3.09766 25.2912C3.09766 27.2828 4.71885 28.904 6.7105 28.904C7.46301 28.904 8.18603 28.6722 8.80245 28.2337L8.20367 27.3927C7.76341 27.7062 7.24729 27.8718 6.7105 27.8718Z" fill="#C9982C"/>
<path d="M30.4511 10.3224C29.7793 10.3224 29.2115 10.7554 28.9978 11.3547H24.6783C24.4646 10.7554 23.8968 10.3224 23.2249 10.3224C22.3714 10.3224 21.6766 11.0172 21.6766 11.8708C21.6766 12.2594 21.8258 12.6109 22.0632 12.8834L18.8434 18.6073C18.758 18.5922 18.6706 18.5803 18.5803 18.5803C18.3843 18.5803 18.1978 18.6207 18.0244 18.6877L16.8203 17.2827C16.9516 17.0557 17.032 16.7961 17.032 16.5159C17.032 15.6623 16.3372 14.9675 15.4836 14.9675C15.0857 14.9675 14.7261 15.1227 14.4514 15.37V12.3745C14.4514 11.2256 13.7122 10.2327 12.6124 9.90231L9.29017 8.90611V8.11706C10.2249 7.46258 10.8385 6.38296 10.8385 5.16121V3.77136C11.1286 3.50246 11.3743 3.17989 11.559 2.81069L12.083 1.76358L10.8247 1.34398C10.3002 1.16959 9.80277 0.925892 9.34335 0.620454C8.73474 0.21421 8.02784 0 7.29802 0C5.26604 0 3.61184 1.6527 3.61083 3.68467L3.60982 5.24891C3.60932 6.19042 3.97524 7.07549 4.64105 7.74131C4.80209 7.90234 4.97648 8.04523 5.16121 8.17073V8.90611L1.83893 9.90281C0.739151 10.2327 0 11.2261 0 12.3751V17.5481H13.7216L11.0893 20.1804L10.4252 19.5161L9.31915 20.2537C9.03262 20.105 8.73373 19.981 8.42577 19.883L8.16444 18.5803H5.2542L4.99286 19.883C4.6844 19.9805 4.38551 20.105 4.09948 20.2537L2.9934 19.5161L0.935721 21.5737L1.67336 22.6798C1.52467 22.9664 1.40068 23.2652 1.30265 23.5732L0 23.835V26.7453L1.30265 27.0066C1.40018 27.3151 1.52467 27.614 1.67336 27.9L0.935721 29.0061L2.9934 31.0638L4.09948 30.3261C4.38602 30.4748 4.6849 30.5988 4.99286 30.6968L5.2547 31.9995H8.16494L8.42628 30.6968C8.73474 30.5993 9.03362 30.4748 9.31966 30.3261L10.4257 31.0638L12.4834 29.0061L11.7458 27.9C11.8945 27.6135 12.0185 27.3146 12.1165 27.0066L13.4191 26.7448V23.8345L12.1165 23.5732C12.019 23.2647 11.8945 22.9659 11.7458 22.6798L12.4834 21.5737L11.8191 20.9102L14.8203 17.909C15.0222 18.006 15.2452 18.0642 15.4836 18.0642C15.6797 18.0642 15.8662 18.0239 16.0396 17.9569L17.2437 19.3618C17.1124 19.5889 17.032 19.8485 17.032 20.1287C17.032 20.9823 17.7268 21.6771 18.5803 21.6771C19.4339 21.6771 20.1287 20.9823 20.1287 20.1287C20.1287 19.7401 19.9795 19.3885 19.7421 19.1161L22.9616 13.3924C23.0478 13.4073 23.1352 13.4191 23.2254 13.4191C23.8973 13.4191 24.4651 12.9862 24.6788 12.3869H28.9983C29.212 12.9862 29.7798 13.4191 30.4516 13.4191C31.3052 13.4191 32 12.7243 32 11.8708C32 11.0172 31.3047 10.3224 30.4511 10.3224ZM7.17151 12.903H7.27937L7.68082 16.5159H6.77005L7.17151 12.903ZM7.36959 11.8708H7.08129L6.71461 10.7715C6.87262 10.8133 7.04197 10.8385 7.22569 10.8385C7.40941 10.8385 7.57876 10.8133 7.73601 10.7715L7.36959 11.8708ZM7.29802 1.03224C7.82397 1.03224 8.33278 1.18647 8.77103 1.47805C9.30555 1.8354 9.88669 2.11917 10.4978 2.32254L10.6268 2.36589C10.2342 3.13553 9.45524 3.61284 8.59084 3.61284C8.13823 3.61284 7.69897 3.47978 7.32221 3.22878L6.23125 2.50122L5.85424 2.68947C5.49865 2.86765 5.11383 2.98937 4.72094 3.05086C5.00597 1.89311 6.05358 1.03224 7.29802 1.03224ZM4.64257 4.1015C5.16322 4.0458 5.67582 3.90644 6.15313 3.68971L6.74939 4.08764C7.65109 4.68843 8.84058 4.79428 9.80629 4.41752V5.16121C9.80629 6.58407 8.642 7.74181 7.21082 7.74181H7.1332C6.46739 7.74181 5.84189 7.48274 5.37139 7.01198C4.90113 6.54122 4.64206 5.91523 4.64257 5.24992V4.1015ZM7.1327 8.77405H7.21032C7.57447 8.77405 7.92553 8.71886 8.25743 8.61932V9.14779C8.12991 9.34536 7.77432 9.80629 7.22569 9.80629C6.67706 9.80629 6.32147 9.34536 6.19345 9.14779V8.64452C6.49586 8.72819 6.81063 8.77405 7.1327 8.77405ZM1.03224 12.3751C1.03224 11.6855 1.47553 11.0898 2.1358 10.8917L5.34644 9.92852L6.18412 12.4421L5.73151 16.5159H4.12897V12.3869H3.09672V16.5159H1.03224V12.3751ZM13.4191 16.5159H11.3547V12.3869H10.3224V16.5159H8.71987L8.26726 12.4421L9.10494 9.92852L12.3156 10.8917C12.9759 11.0893 13.4191 11.6855 13.4191 12.3751V16.5159ZM12.3869 24.6803V25.899L11.2866 26.1188L11.2065 26.434C11.0961 26.8668 10.9252 27.279 10.6987 27.6593L10.5326 27.9386L11.1548 28.8733L10.2934 29.7346L9.35872 29.1124L9.07949 29.2785C8.6992 29.5051 8.28691 29.6764 7.85421 29.7863L7.53894 29.8665L7.31919 30.9672H6.10046L5.8807 29.867L5.56543 29.7868C5.13273 29.6764 4.72044 29.5056 4.34015 29.279L4.06092 29.1129L3.12621 29.7352L2.26483 28.8738L2.8873 27.9391L2.72097 27.6598C2.49442 27.2795 2.32305 26.8673 2.21317 26.4346L2.13303 26.1193L1.03224 25.8995V24.6808L2.13253 24.461L2.21267 24.1458C2.32305 23.7131 2.49391 23.3008 2.72047 22.9205L2.88655 22.6413L2.26433 21.7066L3.12571 20.8452L4.06042 21.4676L4.33965 21.3013C4.71993 21.0748 5.13223 20.9034 5.56493 20.7935L5.8802 20.7134L6.09995 19.6126H7.31868L7.53844 20.7129L7.8537 20.793C8.28641 20.9034 8.6987 21.0743 9.07899 21.3008L9.35822 21.4669L10.2929 20.8447L11.1543 21.706L10.5318 22.6408L10.6982 22.92C10.9247 23.3003 11.0961 23.7126 11.206 24.1453L11.2861 24.4605L12.3869 24.6803ZM14.9675 16.5159C14.9675 16.2311 15.1988 15.9997 15.4836 15.9997C15.7684 15.9997 15.9997 16.2311 15.9997 16.5159C15.9997 16.8009 15.7684 17.032 15.4836 17.032C15.1988 17.032 14.9675 16.8009 14.9675 16.5159ZM18.5803 20.6448C18.2956 20.6448 18.0642 20.4137 18.0642 20.1287C18.0642 19.8439 18.2956 19.6126 18.5803 19.6126C18.8651 19.6126 19.0965 19.8439 19.0965 20.1287C19.0965 20.4137 18.8651 20.6448 18.5803 20.6448ZM23.2254 12.3869C22.9407 12.3869 22.7093 12.1558 22.7093 11.8708C22.7093 11.586 22.9407 11.3547 23.2254 11.3547C23.5102 11.3547 23.7416 11.586 23.7416 11.8708C23.7416 12.1558 23.5102 12.3869 23.2254 12.3869ZM30.4511 12.3869C30.1663 12.3869 29.935 12.1558 29.935 11.8708C29.935 11.586 30.1663 11.3547 30.4511 11.3547C30.7359 11.3547 30.9672 11.586 30.9672 11.8708C30.9672 12.1558 30.7359 12.3869 30.4511 12.3869Z" fill="#C9982C"/>
<path d="M29.9338 13.9355H26.8371V30.9675H25.8049V16.5162H22.7081V30.9675H21.6759V24.258H18.5792V30.9675H17.5469V22.1935H14.4502V30.9675H13.418V31.9998H31.9983V30.9675H29.9338V13.9355ZM27.8693 14.9678H28.9016V30.9675H27.8693V14.9678ZM23.7404 17.5484H24.7726V30.9675H23.7404V17.5484ZM19.6114 25.2902H20.6437V30.9675H19.6114V25.2902ZM15.4825 23.2257H16.5147V30.9675H15.4825V23.2257Z" fill="#C9982C"/>
<path d="M11.3555 30.9668H12.3877V31.999H11.3555V30.9668Z" fill="#C9982C"/>
<path d="M8.25688 25.2905C8.25688 24.437 7.56208 23.7422 6.70852 23.7422C5.85495 23.7422 5.16016 24.437 5.16016 25.2905C5.16016 26.1441 5.85495 26.8389 6.70852 26.8389C7.56208 26.8389 8.25688 26.1441 8.25688 25.2905ZM6.1924 25.2905C6.1924 25.0058 6.42374 24.7744 6.70852 24.7744C6.99329 24.7744 7.22464 25.0058 7.22464 25.2905C7.22464 25.5756 6.99329 25.8067 6.70852 25.8067C6.42374 25.8067 6.1924 25.5756 6.1924 25.2905Z" fill="#C9982C"/>
<path d="M30.9656 0H22.7076C22.1383 0 21.6754 0.462946 21.6754 1.03224V2.06448H14.9658C14.3965 2.06448 13.9336 2.52743 13.9336 3.09672V8.25793C13.9336 8.82723 14.3965 9.29017 14.9658 9.29017H16.5142V11.3547L19.2667 9.29017H23.2238C23.7931 9.29017 24.256 8.82723 24.256 8.25793V7.22569H25.8044V9.29017L28.5568 7.22569H30.9656C31.5349 7.22569 31.9978 6.76274 31.9978 6.19345V1.03224C31.9978 0.462946 31.5349 0 30.9656 0ZM23.2238 8.25793H18.9229L17.5464 9.29017V8.25793H14.9658L14.9648 3.09672H23.2238V8.25793ZM30.9656 6.19345H28.2131L26.8366 7.22569V6.19345H24.256V3.09672C24.256 2.52743 23.7931 2.06448 23.2238 2.06448H22.7076V1.03224H30.9656V6.19345Z" fill="#C9982C"/>
<path d="M26.3203 3.09766H27.3526V4.1299H26.3203V3.09766Z" fill="#C9982C"/>
<path d="M28.3867 3.09766H29.419V4.1299H28.3867V3.09766Z" fill="#C9982C"/>
<path d="M16 4.12891H22.1934V5.16115H16V4.12891Z" fill="#C9982C"/>
<path d="M16 6.19336H22.1934V7.2256H16V6.19336Z" fill="#C9982C"/>
</g>
<defs>
<clipPath id="clip0_1_15484">
<rect width="32" height="32" fill="white"/>
</clipPath>
</defs>
</svg>
