<svg width="32" height="32" viewBox="0 0 32 32" fill="none" xmlns="http://www.w3.org/2000/svg">
<path fill-rule="evenodd" clip-rule="evenodd" d="M30.6196 31.1216H0.501959C0.359528 31.1216 0.223747 31.061 0.128563 30.955C0.0333158 30.8491 -0.0123626 30.7076 0.00288442 30.566C0.30199 27.7806 2.23291 25.4835 4.82026 24.6514C3.82927 23.9667 3.17791 22.8226 3.17791 21.5314C3.17791 19.445 4.87881 17.7423 6.96527 17.7423C9.05368 17.7423 10.7544 19.445 10.7544 21.5314C10.7544 22.0384 10.654 22.5227 10.472 22.9654C11.2472 22.5099 12.0888 22.1554 12.9787 21.9196C11.3394 21.0071 10.2264 19.2552 10.2264 17.2521C10.2264 14.3134 12.6221 11.9153 15.5608 11.9153C18.5023 11.9153 20.8977 14.3135 20.8977 17.2521C20.8977 19.2553 19.7847 21.0072 18.1444 21.9197C19.0345 22.1554 19.8761 22.51 20.6513 22.9654C20.4693 22.5227 20.3689 22.0383 20.3689 21.5314C20.3689 19.445 22.0698 17.7423 24.1563 17.7423C26.2447 17.7423 27.9454 19.445 27.9454 21.5314C27.9454 22.8227 27.294 23.9669 26.3025 24.6515C28.8907 25.4838 30.8211 27.781 31.1187 30.5663C31.1339 30.7079 31.0881 30.8493 30.9929 30.9552C30.8978 31.0611 30.762 31.1216 30.6196 31.1216ZM6.96527 25.3205C4.0645 25.3205 1.64448 27.3805 1.08718 30.1176H5.61336C5.88586 28.3371 6.62463 26.71 7.70102 25.3651C7.45995 25.3357 7.21437 25.3205 6.96527 25.3205ZM6.96527 24.3166C8.50039 24.3166 9.75046 23.065 9.75046 21.5314C9.75046 19.9978 8.50039 18.7462 6.96527 18.7462C5.43178 18.7462 4.18183 19.9979 4.18183 21.5314C4.18183 23.065 5.43178 24.3166 6.96527 24.3166ZM15.5608 22.5891C11.0802 22.5891 7.35912 25.8433 6.63034 30.1176H24.4915C23.765 25.8432 20.0437 22.5891 15.5608 22.5891ZM15.5608 21.5851C17.9489 21.5851 19.8938 19.638 19.8938 17.2521C19.8938 14.8663 17.9489 12.9192 15.5608 12.9192C13.175 12.9192 11.2304 14.8664 11.2304 17.2521C11.2304 19.638 13.175 21.5851 15.5608 21.5851ZM23.4222 25.365C24.4985 26.7099 25.2368 28.3371 25.5084 30.1176H30.0347C29.4788 27.3804 27.0586 25.3205 24.1563 25.3205C23.9078 25.3205 23.6628 25.3356 23.4222 25.365ZM24.1563 24.3166C25.6914 24.3166 26.9415 23.065 26.9415 21.5314C26.9415 19.9978 25.6914 18.7462 24.1563 18.7462C22.6227 18.7462 21.3728 19.9979 21.3728 21.5314C21.3728 23.065 22.6227 24.3166 24.1563 24.3166ZM23.6543 12.3573C23.6543 10.8895 23.6543 6.07925 23.6543 6.07925H22.5185C22.2414 6.07925 22.0165 5.85431 22.0165 5.57729C22.0165 5.3002 22.2414 5.07533 22.5185 5.07533H24.1563C24.4335 5.07533 24.6583 5.30002 24.6583 5.57729V12.3573C25.2826 12.5672 25.7328 13.1575 25.7328 13.8521C25.7328 14.7222 25.0264 15.4286 24.1563 15.4286C23.2862 15.4286 22.5798 14.7222 22.5798 13.8521C22.5798 13.1575 23.03 12.5672 23.6543 12.3573ZM24.1563 13.2796C23.8402 13.2796 23.5837 13.5361 23.5837 13.8521C23.5837 14.1682 23.8402 14.4247 24.1563 14.4247C24.4723 14.4247 24.7288 14.1682 24.7288 13.8521C24.7288 13.5361 24.4723 13.2796 24.1563 13.2796ZM7.46723 12.3573C8.09154 12.5672 8.5418 13.1575 8.5418 13.8521C8.5418 14.7222 7.83535 15.4286 6.96527 15.4286C6.09518 15.4286 5.3888 14.7222 5.3888 13.8521C5.3888 13.1575 5.83899 12.5672 6.46331 12.3573V5.57729C6.46331 5.30002 6.68806 5.07533 6.96527 5.07533H8.6031C8.88019 5.07533 9.10506 5.3002 9.10506 5.57729C9.10506 5.85431 8.88019 6.07925 8.6031 6.07925H7.46723V12.3573ZM6.96527 13.2796C6.64928 13.2796 6.39272 13.5361 6.39272 13.8521C6.39272 14.1682 6.64928 14.4247 6.96527 14.4247C7.28132 14.4247 7.53788 14.1682 7.53788 13.8521C7.53788 13.5361 7.28132 13.2796 6.96527 13.2796ZM16.9486 0.925553C17.2679 1.02055 17.5762 1.1483 17.8694 1.30717L18.4601 1.04452C18.6499 0.960125 18.8721 1.00135 19.019 1.14824L19.9898 2.11909C20.1365 2.26579 20.1778 2.48759 20.0938 2.67727L19.832 3.26814C19.9912 3.56179 20.1191 3.87074 20.2141 4.19112L20.8164 4.4229C21.0102 4.49744 21.1381 4.68367 21.1381 4.89136V6.2646C21.1381 6.47222 21.0102 6.65845 20.8164 6.73305L20.2138 6.96489C20.1186 7.2842 19.9903 7.59266 19.8318 7.8858L20.0938 8.47724C20.1778 8.66692 20.1365 8.88878 19.9898 9.03548L19.019 10.0063C18.8723 10.153 18.6505 10.1943 18.4607 10.1103L17.8702 9.84866C17.5772 10.0076 17.2681 10.1354 16.9484 10.2305L16.7165 10.8329C16.6419 11.0267 16.4558 11.1545 16.2481 11.1545H14.8749C14.6672 11.1545 14.481 11.0267 14.4064 10.8329L14.1746 10.2305C13.8544 10.1353 13.5457 10.0069 13.2522 9.84834L12.6608 10.1103C12.4711 10.1943 12.2493 10.153 12.1026 10.0063L11.1318 9.03548C10.9849 8.8886 10.9436 8.66642 11.028 8.47661L11.2905 7.88624C11.1318 7.59347 11.0039 7.28458 10.9083 6.96515L10.3052 6.73305C10.1114 6.65845 9.9835 6.47222 9.9835 6.2646V4.89136C9.9835 4.68367 10.1114 4.49744 10.3052 4.4229L10.9081 4.19087C11.0037 3.87068 11.1317 3.56198 11.2907 3.26858L11.028 2.67796C10.9436 2.48816 10.9849 2.26591 11.1318 2.11909L12.1026 1.14824C12.2495 1.00135 12.4717 0.960125 12.6615 1.04452L13.2521 1.30717C13.5455 1.14824 13.854 1.02042 14.1734 0.925428L14.4065 0.321255C14.4813 0.127686 14.6674 0 14.8749 0H16.2481C16.4558 0 16.6421 0.128 16.7167 0.321945L16.9486 0.925553ZM16.1032 1.5242L15.9032 1.00392H15.2192L15.0182 1.52489C14.9586 1.67918 14.8269 1.79426 14.6659 1.83253C14.2699 1.92665 13.8922 2.08307 13.545 2.29704C13.404 2.38394 13.2292 2.39567 13.0778 2.32835L12.5687 2.10196L12.0855 2.5851L12.3118 3.09427C12.3792 3.24568 12.3674 3.42049 12.2805 3.56154C12.0664 3.90908 11.9098 4.28718 11.8144 4.68486C11.7759 4.84549 11.6607 4.97688 11.5066 5.03617L10.9874 5.23602V5.91994L11.5066 6.11972C11.6606 6.17901 11.7757 6.31021 11.8143 6.47071C11.9097 6.86695 12.0661 7.24618 12.2801 7.59228C12.3674 7.73346 12.3793 7.90864 12.3118 8.06024L12.0855 8.56941L12.569 9.05293L13.0785 8.82729C13.2293 8.76047 13.4033 8.77208 13.544 8.85823C13.8914 9.07112 14.2694 9.22911 14.667 9.32329C14.8282 9.36151 14.9602 9.47683 15.0197 9.63144L15.2195 10.1506H15.9034L16.1032 9.63144C16.1627 9.47696 16.2945 9.36169 16.4557 9.32342C16.8514 9.22936 17.2301 9.07307 17.5758 8.85929C17.7168 8.7722 17.8916 8.76022 18.0431 8.82729L18.5525 9.05293L19.0365 8.56904L18.8108 8.05961C18.744 7.90877 18.7556 7.73471 18.8417 7.5941C19.0547 7.24656 19.2127 6.86858 19.3069 6.47209C19.3452 6.31103 19.4605 6.1792 19.615 6.11972L20.1341 5.91994V5.23602L19.615 5.03617C19.4603 4.97669 19.3451 4.84467 19.3069 4.68348C19.2127 4.28624 19.0563 3.90864 18.8424 3.56154C18.7556 3.42074 18.7438 3.24618 18.8108 3.0949L19.0365 2.58547L18.5529 2.10196L18.0438 2.32835C17.8924 2.39567 17.7175 2.38394 17.5765 2.29704C17.2294 2.08307 16.8516 1.92665 16.4557 1.83253C16.2945 1.7942 16.1626 1.67887 16.1032 1.5242ZM15.5608 2.68009C17.1615 2.68009 18.4594 3.97653 18.4594 5.57729C18.4594 7.17791 17.1614 8.4758 15.5608 8.4758C13.96 8.4758 12.6636 7.17798 12.6636 5.57729C12.6636 3.97647 13.96 2.68009 15.5608 2.68009ZM15.5608 3.68402C14.5147 3.68402 13.6675 4.53114 13.6675 5.57729C13.6675 6.62344 14.5146 7.47187 15.5608 7.47187C16.6071 7.47187 17.4554 6.6235 17.4554 5.57729C17.4554 4.53107 16.6069 3.68402 15.5608 3.68402Z" fill="#C9982C"/>
</svg>
