<svg width="32" height="32" viewBox="0 0 32 32" fill="none" xmlns="http://www.w3.org/2000/svg">
<g clip-path="url(#clip0_287_100)">
<path d="M16.8769 25.5357L17.6923 22.6191H14.3086L15.1203 25.5357H16.8769Z" stroke="#C9982C" stroke-miterlimit="10" stroke-linecap="round" stroke-linejoin="round"/>
<path d="M4.61719 8.35056V6.14062C4.61719 5.62287 5.03694 5.20312 5.55469 5.20312H11.2637" stroke="#C9982C" stroke-miterlimit="10" stroke-linejoin="round"/>
<path d="M27.3809 8.35056V6.14062C27.3809 5.62287 26.9612 5.20312 26.4434 5.20312H20.7344" stroke="#C9982C" stroke-miterlimit="10" stroke-linejoin="round"/>
<path d="M27.3802 12.8073C28.6106 12.8073 29.6081 11.8099 29.6081 10.5794C29.6081 9.34902 28.6106 8.35156 27.3802 8.35156C26.1498 8.35156 25.1523 9.34902 25.1523 10.5794C25.1523 11.8099 26.1498 12.8073 27.3802 12.8073Z" stroke="#C9982C" stroke-miterlimit="10" stroke-linecap="round" stroke-linejoin="round"/>
<path d="M4.6185 12.8073C5.84892 12.8073 6.84638 11.8099 6.84638 10.5794C6.84638 9.34902 5.84892 8.35156 4.6185 8.35156C3.38808 8.35156 2.39062 9.34902 2.39062 10.5794C2.39062 11.8099 3.38808 12.8073 4.6185 12.8073Z" stroke="#C9982C" stroke-miterlimit="10" stroke-linecap="round" stroke-linejoin="round"/>
<path d="M27.2513 17.2625H30.4032C30.921 17.2625 31.3407 16.8427 31.3407 16.325V14.6043C31.3407 13.6115 30.5359 12.8066 29.5431 12.8066H25.2234C24.2306 12.8066 23.4258 13.6115 23.4258 14.6043V16.325C23.4258 16.8427 23.8455 17.2625 24.3633 17.2625H25.0638" stroke="#C9982C" stroke-miterlimit="10" stroke-linecap="round" stroke-linejoin="round"/>
<path d="M7.63759 17.2625H1.59766C1.07991 17.2625 0.660156 16.8427 0.660156 16.325V14.6043C0.660156 13.6115 1.46497 12.8066 2.45778 12.8066H6.77747C7.77028 12.8066 8.57509 13.6115 8.57509 14.6043V16.325C8.57509 16.8427 8.15534 17.2625 7.63759 17.2625Z" stroke="#C9982C" stroke-miterlimit="10" stroke-linecap="round" stroke-linejoin="round"/>
<path d="M20.7362 5.87787V4.53019C20.7362 4.33406 20.5772 4.17513 20.3811 4.17513H20.0058C19.8529 4.17513 19.7193 4.07663 19.6693 3.93219C19.6191 3.78731 19.5605 3.64631 19.4942 3.50981C19.4274 3.37219 19.4521 3.20788 19.5603 3.09969L19.8258 2.83425C19.9644 2.69556 19.9644 2.47075 19.8258 2.33212L18.8728 1.37919C18.7341 1.2405 18.5093 1.2405 18.3707 1.37919L18.1052 1.64463C17.9971 1.75281 17.8328 1.7775 17.6951 1.71069C17.5586 1.64438 17.4176 1.58588 17.2728 1.53569C17.1283 1.48563 17.0298 1.352 17.0298 1.19919V0.823813C17.0298 0.627688 16.8708 0.46875 16.6747 0.46875H15.3271C15.1309 0.46875 14.972 0.62775 14.972 0.823813V1.19919C14.972 1.352 14.8735 1.48569 14.7291 1.53569C14.5842 1.58588 14.4432 1.64438 14.3067 1.71069C14.1691 1.7775 14.0048 1.75281 13.8966 1.64463L13.6311 1.37919C13.4924 1.2405 13.2676 1.2405 13.129 1.37919L12.1761 2.33212C12.0374 2.47081 12.0374 2.69562 12.1761 2.83425L12.4415 3.09969C12.5497 3.20788 12.5744 3.37219 12.5076 3.50981C12.4413 3.64631 12.3827 3.78731 12.3326 3.93219C12.2825 4.07663 12.1489 4.17513 11.9961 4.17513H11.6207C11.4246 4.17513 11.2656 4.33413 11.2656 4.53019V5.87787C11.2656 6.074 11.4246 6.23294 11.6207 6.23294H11.9961C12.1489 6.23294 12.2826 6.33144 12.3326 6.47587C12.3827 6.62075 12.4413 6.76175 12.5076 6.89825C12.5744 7.03588 12.5497 7.20019 12.4415 7.30837L12.1761 7.57381C12.0374 7.7125 12.0374 7.93731 12.1761 8.07594L13.129 9.02887C13.2677 9.16756 13.4925 9.16756 13.6311 9.02887L13.8966 8.76344C14.0048 8.65525 14.1691 8.63056 14.3067 8.69737C14.4432 8.76369 14.5842 8.82219 14.7291 8.87237C14.8735 8.92244 14.972 9.05606 14.972 9.20887V9.58425C14.972 9.78037 15.131 9.93931 15.3271 9.93931H16.6747C16.8709 9.93931 17.0298 9.78031 17.0298 9.58425V9.20887C17.0298 9.05606 17.1283 8.92237 17.2728 8.87237C17.4176 8.82219 17.5586 8.76369 17.6951 8.69737C17.8328 8.63056 17.9971 8.65525 18.1052 8.76344L18.3707 9.02887C18.5094 9.16756 18.7342 9.16756 18.8728 9.02887L19.8258 8.07594C19.9644 7.93725 19.9644 7.71244 19.8258 7.57381L19.5603 7.30837C19.4521 7.20019 19.4274 7.03588 19.4942 6.89825C19.5606 6.76175 19.6191 6.62075 19.6693 6.47587C19.7193 6.33144 19.8529 6.23294 20.0058 6.23294H20.3811C20.5772 6.23294 20.7362 6.074 20.7362 5.87787Z" stroke="#C9982C" stroke-miterlimit="10" stroke-linecap="round" stroke-linejoin="round"/>
<path d="M16.5368 3.68945H15.4593C15.4028 3.68945 15.3486 3.71189 15.3087 3.75183L14.5468 4.51377C14.5068 4.5537 14.4844 4.60789 14.4844 4.66439V5.74195C14.4844 5.79845 14.5068 5.85264 14.5468 5.89258L15.3087 6.65452C15.3486 6.69445 15.4028 6.71689 15.4593 6.71689H16.5369C16.5934 6.71689 16.6476 6.69445 16.6875 6.65452L17.4494 5.89258C17.4894 5.85264 17.5118 5.79845 17.5118 5.74195V4.66445C17.5118 4.60795 17.4894 4.55377 17.4494 4.51383L16.6875 3.75189C16.6476 3.71189 16.5933 3.68945 16.5368 3.68945Z" stroke="#C9982C" stroke-miterlimit="10" stroke-linecap="round" stroke-linejoin="round"/>
<path d="M16.243 12.1152H15.7596C13.4459 12.1152 11.5703 13.9909 11.5703 16.3045V18.1874C11.5703 20.6345 13.5541 22.6184 16.0013 22.6184C18.4485 22.6184 20.4323 20.6345 20.4323 18.1874V16.3045C20.4323 13.9909 18.5567 12.1152 16.243 12.1152Z" stroke="#C9982C" stroke-miterlimit="10" stroke-linecap="round" stroke-linejoin="round"/>
<path d="M20.4324 16.869H19.563C18.7451 16.869 18.0221 16.4627 17.5849 15.8408C17.4887 15.7041 17.2869 15.7041 17.1907 15.8408C16.7534 16.4627 16.0304 16.869 15.2126 16.869H11.5703" stroke="#C9982C" stroke-miterlimit="10" stroke-linejoin="round"/>
<path d="M25.1808 21.0202H23.7167C22.7211 21.0202 21.9141 21.8272 21.9141 22.8228V23.6478H25.1807L28.4981 21.3319C28.7779 21.1366 28.9446 20.8169 28.9446 20.4757C28.9446 19.6437 28.0191 19.1458 27.3249 19.6043L25.1808 21.0202Z" stroke="#C9982C" stroke-miterlimit="10" stroke-linecap="round" stroke-linejoin="round"/>
<path d="M6.81844 21.0202H8.28256C9.27813 21.0202 10.0852 21.8272 10.0852 22.8228V23.6478H6.8185L3.50119 21.3319C3.22138 21.1366 3.05469 20.8169 3.05469 20.4757C3.05469 19.6437 3.98013 19.1458 4.67438 19.6043L6.81844 21.0202Z" stroke="#C9982C" stroke-miterlimit="10" stroke-linecap="round" stroke-linejoin="round"/>
<path d="M25.1807 24.8749V23.6484H21.9141V31.5312H24.2432C24.761 31.5312 25.1807 31.1114 25.1807 30.5937V27.0624" stroke="#C9982C" stroke-miterlimit="10" stroke-linecap="round" stroke-linejoin="round"/>
<path d="M6.82031 29.5624V30.5937C6.82031 31.1114 7.24006 31.5312 7.75781 31.5312H10.087V23.6484H6.82031V27.3749" stroke="#C9982C" stroke-miterlimit="10" stroke-linecap="round" stroke-linejoin="round"/>
<path d="M21.9137 22.9915C21.4333 22.7535 20.8925 22.6191 20.3201 22.6191H11.6796C11.1071 22.6191 10.5663 22.7535 10.0859 22.9915V31.532H21.9137V22.9915Z" stroke="#C9982C" stroke-miterlimit="10" stroke-linecap="round" stroke-linejoin="round"/>
<path d="M17.9548 31.5314L16.8753 25.5352H15.1187L14.043 31.5314H17.9548Z" stroke="#C9982C" stroke-miterlimit="10" stroke-linecap="round" stroke-linejoin="round"/>
</g>
<defs>
<clipPath id="clip0_287_100">
<rect width="32" height="32" fill="white"/>
</clipPath>
</defs>
</svg>
