<svg width="47" height="46" viewBox="0 0 47 46" fill="none" xmlns="http://www.w3.org/2000/svg">
<circle cx="23.7499" cy="23.0562" r="22.9439" fill="#F21D86"/>
<g clip-path="url(#clip0_1_509)">
<path d="M23.7499 13.4961C26.3473 13.4961 26.6714 13.5057 27.6905 13.5535C28.7086 13.6013 29.4017 13.7609 30.0117 13.998C30.6426 14.2408 31.1742 14.5697 31.7057 15.1003C32.1918 15.5782 32.568 16.1562 32.808 16.7943C33.0441 17.4033 33.2047 18.0973 33.2525 19.1154C33.2974 20.1345 33.3099 20.4586 33.3099 23.0561C33.3099 25.6535 33.3003 25.9776 33.2525 26.9967C33.2047 28.0148 33.0441 28.7079 32.808 29.3179C32.5687 29.9562 32.1924 30.5345 31.7057 31.0119C31.2277 31.4978 30.6496 31.874 30.0117 32.1141C29.4027 32.3503 28.7086 32.5109 27.6905 32.5587C26.6714 32.6036 26.3473 32.616 23.7499 32.616C21.1524 32.616 20.8284 32.6065 19.8093 32.5587C18.7911 32.5109 18.098 32.3503 17.4881 32.1141C16.8498 31.8746 16.2716 31.4984 15.7941 31.0119C15.3079 30.5341 14.9317 29.956 14.6918 29.3179C14.4547 28.7089 14.2951 28.0148 14.2473 26.9967C14.2023 25.9776 14.1899 25.6535 14.1899 23.0561C14.1899 20.4586 14.1995 20.1345 14.2473 19.1154C14.2951 18.0964 14.4547 17.4042 14.6918 16.7943C14.931 16.1559 15.3073 15.5776 15.7941 15.1003C16.2718 14.6139 16.8499 14.2377 17.4881 13.998C18.098 13.7609 18.7902 13.6013 19.8093 13.5535C20.8284 13.5085 21.1524 13.4961 23.7499 13.4961ZM23.7499 18.2761C22.4822 18.2761 21.2663 18.7797 20.3699 19.6761C19.4735 20.5725 18.9699 21.7883 18.9699 23.0561C18.9699 24.3238 19.4735 25.5396 20.3699 26.436C21.2663 27.3325 22.4822 27.8361 23.7499 27.8361C25.0176 27.8361 26.2334 27.3325 27.1298 26.436C28.0263 25.5396 28.5299 24.3238 28.5299 23.0561C28.5299 21.7883 28.0263 20.5725 27.1298 19.6761C26.2334 18.7797 25.0176 18.2761 23.7499 18.2761ZM29.9639 18.0371C29.9639 17.7201 29.838 17.4162 29.6139 17.1921C29.3898 16.968 29.0858 16.8421 28.7689 16.8421C28.4519 16.8421 28.148 16.968 27.9239 17.1921C27.6998 17.4162 27.5739 17.7201 27.5739 18.0371C27.5739 18.354 27.6998 18.658 27.9239 18.8821C28.148 19.1062 28.4519 19.2321 28.7689 19.2321C29.0858 19.2321 29.3898 19.1062 29.6139 18.8821C29.838 18.658 29.9639 18.354 29.9639 18.0371ZM23.7499 20.1881C24.5105 20.1881 25.24 20.4902 25.7779 21.0281C26.3157 21.5659 26.6179 22.2954 26.6179 23.0561C26.6179 23.8167 26.3157 24.5462 25.7779 25.084C25.24 25.6219 24.5105 25.9241 23.7499 25.9241C22.9892 25.9241 22.2598 25.6219 21.7219 25.084C21.1841 24.5462 20.8819 23.8167 20.8819 23.0561C20.8819 22.2954 21.1841 21.5659 21.7219 21.0281C22.2598 20.4902 22.9892 20.1881 23.7499 20.1881Z" fill="white"/>
</g>
<defs>
<clipPath id="clip0_1_509">
<rect width="22.9439" height="22.9439" fill="white" transform="translate(12.2779 11.584)"/>
</clipPath>
</defs>
</svg>
