<svg width="32" height="32" viewBox="0 0 32 32" fill="none" xmlns="http://www.w3.org/2000/svg">
<path d="M19.0958 21.678V22.7102H20.128V21.678C21.2666 21.678 22.1925 20.7521 22.1925 19.6135C22.1925 18.4749 21.2666 17.549 20.128 17.549H19.0958C18.5265 17.549 18.0635 17.086 18.0635 16.5167C18.0635 15.9474 18.5265 15.4844 19.0958 15.4844H20.128C20.6973 15.4844 21.1603 15.9474 21.1603 16.5167H22.1925C22.1925 15.3781 21.2666 14.4522 20.128 14.4522V13.4199H19.0958V14.4522C17.9572 14.4522 17.0312 15.3781 17.0312 16.5167C17.0312 17.6553 17.9572 18.5812 19.0958 18.5812H20.128C20.6973 18.5812 21.1603 19.0442 21.1603 19.6135C21.1603 20.1828 20.6973 20.6457 20.128 20.6457H19.0958C18.5265 20.6457 18.0635 20.1828 18.0635 19.6135V19.0973H17.0312V19.6135C17.0312 20.7521 17.9572 21.678 19.0958 21.678Z" fill="#C9982C"/>
<path d="M32 15.4839H26.2756C26.048 14.9383 25.7564 14.4196 25.3992 13.9412C25.6495 13.6661 25.8065 13.3037 25.8065 12.9032C25.8065 12.5053 25.6511 12.1455 25.4039 11.871C25.6516 11.5964 25.8065 11.2366 25.8065 10.8387C25.8065 10.4408 25.6511 10.081 25.4039 9.80645C25.6516 9.53187 25.8065 9.17213 25.8065 8.77419C25.8065 8.37626 25.6511 8.01652 25.4039 7.74194C25.6516 7.46735 25.8065 7.10761 25.8065 6.70968C25.8065 5.856 25.1117 5.16129 24.2581 5.16129C24.2581 4.592 23.7951 4.12903 23.2258 4.12903H23.2021L24.2462 1.36L23.9257 1.12877C22.9017 0.390194 21.6929 0 20.4299 0H19.7796L19.0446 1.83794L18.3835 0.516129H17.632C16.4335 0.516129 15.3729 1.28 14.9941 2.41755L14.9265 2.62039L15.8457 4.45884C15.7445 4.50477 15.6428 4.54968 15.5458 4.6049L13.2072 5.94116C12.9394 5.47768 12.4439 5.16129 11.871 5.16129H0V13.4194H11.871C12.4439 13.4194 12.9394 13.103 13.2072 12.639L14.3685 13.3027C13.7569 13.9484 13.2728 14.6839 12.9394 15.4839H7.22581V22.2694C6.65548 22.3861 6.12387 22.64 5.67742 23.025C5.05394 22.4872 4.26787 22.1935 3.43587 22.1935C1.54116 22.1935 0 23.7347 0 25.6294C0 26.5471 0.357161 27.4101 1.00645 28.0588L4.43148 31.4839C4.76439 31.8168 5.20671 32 5.67742 32C6.14813 32 6.59097 31.8168 6.92335 31.4839L9.504 28.9032H32V15.4839ZM30.9677 18.5285C29.9582 18.3226 29.1613 17.5257 28.9554 16.5161H30.9677V18.5285ZM17.9855 10.3226L17.7068 8.65084C18.3174 8.49032 18.8779 8.17394 19.3363 7.71561L19.8266 7.22529H20.7401C20.8088 7.41832 20.913 7.59226 21.0477 7.74142C20.8 8.016 20.6452 8.37574 20.6452 8.77368C20.6452 9.17161 20.8005 9.53135 21.0477 9.80594C20.913 9.9551 20.8088 10.129 20.7401 10.3221L17.9855 10.3226ZM24.7742 8.77419C24.7742 9.05858 24.5425 9.29032 24.2581 9.29032H22.1935C21.9092 9.29032 21.6774 9.05858 21.6774 8.77419C21.6774 8.48981 21.9092 8.25806 22.1935 8.25806H24.2581C24.5425 8.25806 24.7742 8.48981 24.7742 8.77419ZM22.1935 10.3226H24.2581C24.5425 10.3226 24.7742 10.5543 24.7742 10.8387C24.7742 11.1231 24.5425 11.3548 24.2581 11.3548H23.2258H22.1935C21.9092 11.3548 21.6774 11.1231 21.6774 10.8387C21.6774 10.5543 21.9092 10.3226 22.1935 10.3226ZM23.2258 12.3871H24.2581C24.5425 12.3871 24.7742 12.6188 24.7742 12.9032C24.7742 13.1876 24.5425 13.4194 24.2581 13.4194H23.2258C22.9414 13.4194 22.7097 13.1876 22.7097 12.9032C22.7097 12.6188 22.9414 12.3871 23.2258 12.3871ZM23.9711 6.19355H24.2581C24.5425 6.19355 24.7742 6.42529 24.7742 6.70968C24.7742 6.99406 24.5425 7.22581 24.2581 7.22581H22.1935C22.9543 7.22581 23.6129 6.80774 23.9711 6.19355ZM20.4785 1.03226C21.375 1.04103 22.2369 1.28723 22.9961 1.74968L22.0991 4.12903H19.2397L20.4785 1.03226ZM16.0485 2.55587C16.3329 1.94581 16.9461 1.54839 17.6315 1.54839H17.7455L19.0359 4.12903H17.3383C17.1752 4.12903 17.0126 4.14142 16.8521 4.1631L16.0485 2.55587ZM16.0583 5.50142C16.4475 5.27897 16.8903 5.16129 17.3383 5.16129H23.2258C23.2258 5.73058 22.7628 6.19355 22.1935 6.19355H19.3992L18.6065 6.98632C18.1192 7.47355 17.471 7.74194 16.7819 7.74194H15.4839V8.77419H16.6813L16.9956 10.6617L15.1164 12.5409L13.4194 11.5716V7.00903L16.0583 5.50142ZM9.29032 6.19355V12.3871H8.25806V6.19355H9.29032ZM1.03226 6.19355H7.22581V12.3871H1.03226V6.19355ZM12.3871 11.871C12.3871 12.1554 12.1554 12.3871 11.871 12.3871H10.3226V6.19355H11.871C12.1554 6.19355 12.3871 6.42529 12.3871 6.70968V11.871ZM13.4194 18.2632C13.4194 16.609 14.0635 15.0534 15.2335 13.8839L17.7621 11.3548H20.7401C20.9094 11.8292 21.3006 12.1946 21.791 12.3272C21.7192 12.5058 21.6774 12.6994 21.6774 12.9032C21.6774 13.7569 22.3721 14.4516 23.2258 14.4516H24.2581C24.3308 14.4516 24.4 14.4397 24.4702 14.4299C25.3306 15.5205 25.8065 16.8676 25.8065 18.2632V18.5806C25.8065 21.9959 23.0281 24.7742 19.6129 24.7742C16.1977 24.7742 13.4194 21.9959 13.4194 18.5806V18.2632ZM19.6129 25.8065C23.5974 25.8065 26.8387 22.5652 26.8387 18.5806V18.2632C26.8387 17.6692 26.7603 17.0839 26.6183 16.5161H27.9123C28.1399 18.095 29.3889 19.3445 30.9677 19.5716V24.8155C29.3889 25.0431 28.1394 26.2921 27.9123 27.871H10.5187C11.0581 27.2475 11.3548 26.4619 11.3548 25.6294C11.3548 23.8493 9.99381 22.3819 8.25806 22.2111V19.5716C9.8369 19.344 11.0865 18.095 11.3135 16.5161H12.6075C12.4676 17.0818 12.3871 17.6655 12.3871 18.2632V18.5806C12.3871 22.5652 15.6284 25.8065 19.6129 25.8065ZM10.2705 16.5161C10.0645 17.5257 9.26761 18.3226 8.25806 18.5285V16.5161H10.2705ZM6.19355 30.7541C5.92206 31.0255 5.43277 31.0255 5.16129 30.7541L1.73626 27.329C1.28206 26.8748 1.03226 26.2715 1.03226 25.6294C1.03226 24.304 2.11045 23.2258 3.43587 23.2258C4.07794 23.2258 4.68181 23.4756 5.13548 23.9298L5.67742 24.4717L6.21935 23.9298C6.67355 23.4756 7.2769 23.2258 7.91897 23.2258C9.24439 23.2258 10.3226 24.304 10.3226 25.6294C10.3226 26.2715 10.0728 26.8754 9.61858 27.329L6.19355 30.7541ZM28.9554 27.871C29.1613 26.8614 29.9582 26.0645 30.9677 25.8586V27.871H28.9554Z" fill="#C9982C"/>
</svg>
