<svg width="32" height="32" viewBox="0 0 32 32" fill="none" xmlns="http://www.w3.org/2000/svg">
<path d="M5.58666 30.2596V30.2618C5.59909 30.2618 5.61134 30.2611 5.62372 30.261C5.63872 30.2615 5.65391 30.2618 5.66934 30.2618H24.0186H25.5365H25.9778C27.4625 30.2618 28.6703 29.0537 28.6703 27.5687V27.1937H25.9115V14.6887C25.9795 14.6766 26.0472 14.6635 26.1148 14.6491C26.1254 14.6468 26.136 14.6449 26.1468 14.6426L26.1467 14.6421C26.2697 14.6152 26.3922 14.5857 26.513 14.5511L26.3065 13.8301C26.1978 13.8612 26.0877 13.8877 25.977 13.9118C25.4584 14.0238 24.941 14.0541 24.4377 14.012C24.427 14.011 24.4164 14.0103 24.4058 14.0093C24.3272 14.0023 24.249 13.9935 24.1712 13.9829C24.1675 13.9824 24.1638 13.982 24.1602 13.9815C22.4772 13.7487 20.9872 12.7008 20.208 11.171C20.1988 11.1527 20.1897 11.1341 20.1807 11.1156C20.1543 11.0623 20.1288 11.0086 20.1041 10.9541C20.092 10.9273 20.0803 10.9005 20.0687 10.8735C20.0473 10.8242 20.027 10.7745 20.0071 10.7245C19.998 10.7013 19.9885 10.6783 19.9797 10.6551C19.8892 10.4163 19.8146 10.1683 19.7586 9.91145C19.7011 9.64783 19.6647 9.38439 19.6482 9.12295C19.6482 9.12158 19.6481 9.12014 19.648 9.11864C19.621 8.68502 19.649 8.25695 19.7263 7.84233C19.7278 7.83464 19.7294 7.82695 19.7308 7.81933C19.745 7.74564 19.7607 7.67233 19.7778 7.59952C19.7802 7.58964 19.7826 7.57977 19.785 7.56983C19.803 7.49589 19.8224 7.42252 19.8434 7.34964C19.8448 7.34477 19.8462 7.33995 19.8477 7.33514C20.201 6.12745 20.9834 5.07208 22.0546 4.3862C22.0617 4.38164 22.0688 4.37695 22.076 4.37239C22.3452 4.20183 22.6328 4.05552 22.936 3.93495C22.9749 3.91945 23.0141 3.90458 23.0534 3.88995C23.0953 3.87445 23.1375 3.85945 23.1798 3.84495C23.2111 3.83427 23.2422 3.82358 23.2736 3.81352C23.2888 3.80864 23.3045 3.80445 23.3197 3.7997L24.0697 3.62564C24.2872 3.59158 24.505 3.57139 24.7222 3.5647C24.7521 3.56383 24.7817 3.56252 24.8117 3.56214C24.8462 3.5617 24.8807 3.56252 24.915 3.5627C25.1101 3.56445 25.3055 3.57602 25.4984 3.59939L25.4985 3.5987C25.7882 3.63339 26.0743 3.69264 26.3545 3.77583L26.3541 3.77683C26.6205 3.85564 26.8817 3.95702 27.1323 4.07695C27.3259 4.17014 27.5156 4.27433 27.6992 4.3922C27.9141 4.5302 28.1167 4.68233 28.3063 4.84658C28.326 4.86364 28.3452 4.88127 28.3646 4.89864C28.403 4.93295 28.441 4.96764 28.4783 5.00295C28.506 5.0292 28.5333 5.05589 28.5603 5.0827C28.7833 5.30327 28.9856 5.54189 29.164 5.79733L29.1629 5.79808C29.3315 6.03989 29.4809 6.29858 29.607 6.56695L29.6071 6.56683C29.6442 6.64589 29.6792 6.72595 29.7123 6.80708C29.7377 6.86883 29.7619 6.93108 29.785 6.99377C29.7925 7.0147 29.7997 7.03583 29.8071 7.05689C29.8243 7.10545 29.8413 7.15408 29.857 7.20302C29.9067 7.35952 29.9499 7.51895 29.9853 7.68133L30.7182 7.52152C30.715 7.5072 30.711 7.49327 30.7078 7.47895L30.7096 7.47858C30.6712 7.30964 30.6249 7.14158 30.5717 6.97545C30.5533 6.91795 30.5332 6.86127 30.5133 6.80452C30.5052 6.78152 30.4975 6.75845 30.4891 6.73558C30.4628 6.66352 30.4349 6.59233 30.406 6.52152C30.4047 6.5182 30.4034 6.51483 30.402 6.51152L30.4019 6.51158C30.1081 5.79614 29.6803 5.1497 29.1388 4.60114L29.1397 4.60033C29.1254 4.58577 29.1103 4.57195 29.0958 4.55752C29.061 4.52302 29.0262 4.4887 28.9905 4.45502C28.9529 4.41945 28.9145 4.3847 28.8759 4.35002C28.8488 4.3257 28.8222 4.30114 28.7946 4.27727C28.7295 4.22095 28.6635 4.16602 28.5961 4.11252C28.5933 4.11033 28.5906 4.10795 28.5878 4.10577C28.516 4.04889 28.443 3.99339 28.3688 3.94002L28.3682 3.94089C28.282 3.87902 28.1942 3.81883 28.1043 3.76108C27.0444 3.0807 25.8258 2.75789 24.5926 2.81808C24.5863 2.81839 24.58 2.81833 24.5738 2.81864V2.8192C24.4058 2.82795 24.2376 2.8437 24.0695 2.8667V1.73633H1.14453V28.1838H3.04903C3.32378 29.342 4.35472 30.2225 5.58666 30.2596ZM25.9778 29.5118H25.5365H24.0186H7.44903C7.87503 29.1031 8.16747 28.5561 8.25316 27.9437H27.884C27.7089 28.8363 26.9207 29.5118 25.9778 29.5118ZM20.9239 4.2987C20.9189 4.30308 20.9138 4.30714 20.9088 4.31158L20.9092 4.31202C20.6611 4.53195 20.4303 4.77295 20.2196 5.03445L20.2183 5.03352C20.2094 5.04464 20.201 5.05633 20.1921 5.06752C20.1808 5.0817 20.17 5.09633 20.1588 5.11064C20.1113 5.17145 20.0649 5.23314 20.0197 5.29589C20.0075 5.31277 19.9957 5.32977 19.9837 5.3467C19.9408 5.40758 19.8991 5.4692 19.8586 5.5317C19.8515 5.54252 19.8438 5.55289 19.8368 5.56377C19.8262 5.5802 19.8162 5.59689 19.8058 5.61339C19.7923 5.63483 19.7787 5.6562 19.7655 5.67777C19.7292 5.7372 19.6941 5.79714 19.66 5.85745C19.6568 5.86314 19.6533 5.86864 19.6502 5.87433L19.6505 5.87452C19.4918 6.15714 19.3571 6.44939 19.2473 6.74902H3.72659V4.16514H21.0813C21.0282 4.20877 20.9757 4.2532 20.9239 4.2987ZM1.89478 2.48633H23.3198V3.01752C23.3168 3.01827 23.314 3.0192 23.3112 3.02002C23.3005 3.02289 23.29 3.02633 23.2792 3.0292C23.2068 3.04933 23.1346 3.07045 23.0628 3.09327C23.0126 3.10908 22.9632 3.12627 22.9136 3.14333C22.8842 3.15358 22.8547 3.16358 22.8253 3.17427C22.7594 3.19814 22.6942 3.22327 22.6294 3.24933C22.6245 3.25127 22.6195 3.25295 22.6147 3.25495L22.6148 3.25527C22.4922 3.30489 22.3713 3.35777 22.2528 3.41514H2.97659V15.8914H3.72659V7.49914H19.028C18.9015 8.06758 18.8593 8.65333 18.9043 9.24102C18.9064 9.26895 18.9086 9.29677 18.911 9.32464C18.9158 9.3767 18.921 9.42877 18.9272 9.48083C18.9323 9.52539 18.9383 9.56983 18.9443 9.6142C18.9463 9.6282 18.9483 9.6422 18.9505 9.65614C18.9561 9.69489 18.961 9.73383 18.9673 9.77239L18.9685 9.7722C18.9851 9.87189 19.0042 9.97152 19.0258 10.071C19.0759 10.3005 19.1397 10.5233 19.2142 10.7403L19.2131 10.7407C19.2187 10.7571 19.225 10.7735 19.2308 10.7898C19.2412 10.8191 19.2517 10.8483 19.2624 10.8774C19.2777 10.9182 19.2934 10.9586 19.3095 10.9991C19.3291 11.0488 19.3493 11.098 19.3702 11.1469C19.3862 11.1845 19.4025 11.222 19.4193 11.2593C19.4342 11.2924 19.4493 11.3254 19.4648 11.3581C19.4912 11.4137 19.5181 11.469 19.5459 11.5235C19.5569 11.545 19.5683 11.5661 19.5796 11.5873C19.5939 11.6146 19.6079 11.642 19.6227 11.6689L19.6237 11.6683C19.7852 11.9631 19.97 12.2412 20.1754 12.5008L20.173 12.5028C20.3821 12.7682 20.6156 13.0174 20.867 13.2436L20.8701 13.2401C21.1183 13.4631 21.3843 13.6647 21.6653 13.8432L21.6628 13.847C21.948 14.0279 22.2507 14.1858 22.5626 14.3162L22.5638 14.3133C22.8698 14.4418 23.1873 14.5452 23.5131 14.6218L23.5126 14.6238C23.5372 14.6296 23.562 14.6341 23.5867 14.6395C23.6053 14.6436 23.624 14.6474 23.6427 14.6513C23.7047 14.6644 23.7668 14.6768 23.8293 14.6878C23.8527 14.692 23.8762 14.6957 23.8997 14.6996C23.9589 14.7095 24.0182 14.7186 24.0776 14.7267C24.1026 14.7301 24.1277 14.733 24.1527 14.736C24.2125 14.7433 24.2723 14.75 24.3322 14.7555C24.3552 14.7576 24.3781 14.7593 24.4012 14.7611C24.4399 14.7643 24.4787 14.7683 24.5174 14.7706L24.5175 14.7687C24.6348 14.7757 24.7525 14.7805 24.871 14.7805C24.9676 14.7805 25.0645 14.7779 25.1617 14.7731V27.1936H7.52916V27.5686C7.52916 28.6261 6.68016 29.4885 5.62816 29.5107C4.57897 29.4895 3.72647 28.6198 3.72647 27.569V19.9483H2.97647V27.4339H1.89478V2.48633Z" fill="#C9982C"/>
<path d="M2.97656 17.1758H3.72656V18.5536H2.97656V17.1758Z" fill="#C9982C"/>
<path d="M13.3672 5.00586H16.2422V5.75586H13.3672V5.00586Z" fill="#C9982C"/>
<path d="M10.0273 17.4199V19.2004V20.6036V24.6385V26.0411H14.5252H19.0801H23.6531V24.6385V23.2325V20.6036V19.2004V17.4199H19.0801H14.5252H10.0273ZM10.7773 18.1699H14.5252V22.4825H10.7773V18.1699ZM14.5252 23.8885H10.7773V23.2325H14.5252V23.8885ZM15.2752 23.2325H18.3301V23.8885H15.2752V23.2325ZM10.7773 25.2911V24.6385H14.5251V25.2911H10.7773ZM15.2752 25.2911V24.6385H18.3301V25.2911H15.2752ZM22.9031 25.2911H19.0801V24.6385H22.9031V25.2911ZM22.9031 23.8885H19.0801V23.2325H22.9031V23.8885ZM22.9031 18.1699V19.2004V20.6036V22.4825H19.0801V18.1699H22.9031ZM18.3301 18.1699V22.4825H15.2752V18.1699H18.3301Z" fill="#C9982C"/>
<path d="M9.07322 18.3242H5.23047V26.0398H9.07322V18.3242ZM8.32322 19.0742V20.0939H5.98047V19.0742H8.32322ZM5.98047 21.807V20.8439H8.32322V21.807H5.98047ZM8.32322 22.557V23.554H5.98047V22.557H8.32322ZM5.98047 25.2898V24.304H8.32322V25.2898H5.98047Z" fill="#C9982C"/>
<path d="M9.14606 15.0075L10.0143 15.8758L12.7701 13.12L13.6858 14.0357L16.565 11.1564V12.3461H17.315V9.85773L14.8046 9.85742L14.8045 10.6074L16.0532 10.6076L13.6858 12.975L12.7701 12.0594L10.0143 14.8151L9.14606 13.9469L6.35156 16.7414L6.88194 17.2717L9.14606 15.0075Z" fill="#C9982C"/>
<path d="M29.6653 8.79559C29.6653 6.15347 27.5157 4.00391 24.8737 4.00391C22.2316 4.00391 20.082 6.15347 20.082 8.79559C20.082 11.4377 22.2316 13.5873 24.8737 13.5873C26.2566 13.5873 27.572 12.9897 28.4827 11.9477C29.2453 11.0751 29.6653 9.95566 29.6653 8.79559ZM27.9179 11.454C27.1496 12.3331 26.04 12.8372 24.8736 12.8372C22.645 12.8372 20.832 11.0242 20.832 8.79553C20.832 6.56691 22.645 4.75384 24.8736 4.75384C27.1022 4.75384 28.9152 6.56691 28.9152 8.79553C28.9153 9.77409 28.5612 10.7182 27.9179 11.454Z" fill="#C9982C"/>
<path d="M29.7478 12.2687L29.1366 11.834C28.9651 12.0752 28.772 12.3029 28.5625 12.511L29.0912 13.043C29.3307 12.805 29.5516 12.5444 29.7478 12.2687Z" fill="#C9982C"/>
<path d="M30.5425 10.7118C30.5704 10.6292 30.5969 10.545 30.6212 10.4614L29.9012 10.252C29.8798 10.3251 29.8566 10.399 29.8322 10.4713C29.7618 10.6788 29.6777 10.884 29.582 11.0812L30.2568 11.4085C30.3661 11.1833 30.4623 10.9489 30.5425 10.7118Z" fill="#C9982C"/>
<path d="M27.125 13.5201L27.4471 14.1974C27.7532 14.0517 28.0482 13.8795 28.3237 13.6854L27.8917 13.0723C27.6509 13.242 27.3928 13.3927 27.125 13.5201Z" fill="#C9982C"/>
<path d="M30.1092 8.79438C30.1092 8.99475 30.0974 9.19756 30.0742 9.39706L30.8191 9.48381C30.8457 9.25562 30.8592 9.02369 30.8592 8.79438C30.8592 8.68631 30.8562 8.57675 30.8502 8.46875L30.1013 8.50981C30.1066 8.60419 30.1092 8.69988 30.1092 8.79438Z" fill="#C9982C"/>
<path d="M25.2336 7.73064V5.31445H24.4836V7.73983C24.1723 7.8542 23.935 8.0972 23.8212 8.39389H21.9531V9.14389H23.8016C23.8814 9.39058 24.0427 9.60039 24.2638 9.74233C24.4475 9.86027 24.6565 9.92114 24.8698 9.92114C24.9502 9.92114 25.0312 9.91245 25.1118 9.89495C25.7183 9.7627 26.104 9.16177 25.9718 8.5552C25.8848 8.15627 25.5944 7.85389 25.2336 7.73064ZM24.9521 9.16214C24.8539 9.18358 24.7534 9.16545 24.669 9.1112C24.5846 9.05702 24.5263 8.97314 24.5049 8.87508C24.4609 8.6727 24.5896 8.47214 24.7919 8.42802C24.9946 8.38383 25.195 8.51264 25.2391 8.71502C25.2833 8.91739 25.1544 9.11802 24.9521 9.16214Z" fill="#C9982C"/>
</svg>
