<svg width="53" height="53" viewBox="0 0 53 53" fill="none" xmlns="http://www.w3.org/2000/svg">
<rect x="1.27454" y="0.712646" width="50.8337" height="50.8337" rx="25.4169" fill="#C9982C" fill-opacity="0.59"/>
<rect x="1.27454" y="0.712646" width="50.8337" height="50.8337" rx="25.4169" stroke="#C9982C"/>
<g clip-path="url(#clip0_1_314)">
<path d="M33.2728 27.4044C33.0576 28.223 32.7644 29.0186 32.3823 29.7745C31.8468 30.834 31.3233 31.6908 31.0894 32.8794L31.006 33.4511C30.9897 33.5554 31.0471 33.7206 31.0683 33.8292C31.2407 34.7117 30.9627 35.5614 30.2004 36.0847C30.0372 36.1967 29.8588 36.2851 29.6871 36.383C29.329 37.6974 27.5026 38.4526 26.243 38.2974C25.2585 38.1761 24.2868 37.5435 23.7992 36.6719C23.7059 36.5049 23.679 36.4003 23.513 36.2989L23.2787 36.1515C22.4701 35.6109 22.0523 34.5976 22.3611 33.648C22.3772 33.5985 22.4152 33.5307 22.4216 33.4812C22.4303 33.4136 22.1835 32.4004 22.1571 32.3082C21.9016 31.4131 21.4246 30.6054 20.9982 29.7851C20.2737 28.3916 19.8512 26.7926 19.8328 25.2216C19.2847 25.316 18.7595 25.3754 18.2091 25.2223C17.1805 24.9362 16.3951 24.0724 15.7639 23.2573C15.4924 22.9067 15.0025 22.4105 15.1457 21.9313C15.3083 21.3872 15.9273 21.3297 16.3688 21.0985C16.1791 20.9745 16.0208 20.8217 15.8643 20.6591C14.2632 18.9958 13.8453 16.2849 14.8875 14.2272C14.9866 14.0316 15.0781 13.8959 15.2963 13.8247C15.6379 13.8069 15.7096 14.0283 15.7399 14.3065L15.7938 14.7408C15.8567 15.1335 15.9361 15.5339 16.0702 15.9091C16.7703 17.8683 18.4025 18.9817 20.3923 19.2552C20.6769 19.2943 21.1806 19.227 21.387 19.2762L21.8758 18.9552C22.4717 18.5883 22.9855 18.4738 23.6637 18.4729L29.8485 18.4739C30.4929 18.4775 31.1438 18.7116 31.6817 19.0588C31.935 19.2222 31.9118 19.2678 32.2391 19.2699C34.0255 19.2819 35.5865 18.6337 36.6577 17.1405C37.1843 16.4065 37.5485 15.4755 37.6333 14.5696C37.647 14.4233 37.644 14.2717 37.6695 14.1272C37.7195 13.8427 38.0473 13.7419 38.2647 13.9124C38.7146 14.2651 38.9855 15.5562 39.0502 16.1805C39.2263 17.8776 38.5577 19.6689 37.3248 20.8503C37.2346 20.9368 37.1341 21.0162 37.0547 21.1129C37.3081 21.3047 37.665 21.3357 37.9406 21.4962C38.3495 21.7344 38.5041 22.1323 38.1852 22.5193L37.9442 22.8199C37.3133 23.6309 36.6805 24.5338 35.7335 25.0014C35.075 25.3265 34.2692 25.4295 33.5656 25.1901C33.5597 25.9395 33.4387 26.6748 33.2728 27.4044ZM38.186 15.8238L38.175 15.8449C38.1335 15.9273 38.1142 16.0317 38.0837 16.1197C37.2473 18.5339 35.0391 20.0624 32.5203 20.0721C32.3749 20.0727 32.0454 20.0079 31.9694 20.1727C31.7808 20.5816 31.9925 21.0938 32.3273 21.3566C32.6984 21.6376 33.1144 21.6982 33.5662 21.6974C35.5474 21.6939 37.3507 20.1522 37.9957 18.3333C38.2573 17.5955 38.3332 16.7375 38.2202 15.9625C38.2152 15.9281 38.2111 15.8443 38.186 15.8238ZM15.177 15.8065C15.1251 16.2953 15.1026 16.8308 15.1534 17.3207C15.3797 19.5048 17.2797 21.4621 19.4779 21.6805C20.0064 21.7329 20.6449 21.6912 21.0735 21.3409C21.3805 21.0819 21.6541 20.4443 21.3798 20.0991C21.3443 20.0546 20.4603 20.0729 20.2941 20.0383C20.1662 20.0118 20.0314 20.0016 19.902 19.9808C18.3311 19.7282 16.8955 18.8545 16 17.5274C15.6376 16.9903 15.4245 16.3985 15.177 15.8065ZM28.9531 19.2726L24.0759 19.2738C23.3103 19.2745 22.8044 19.2869 22.1467 19.7461C22.3078 20.3105 22.3679 20.8225 22.075 21.3544C21.1901 22.9618 18.8371 22.6442 17.4826 21.8819C17.3482 21.8062 17.219 21.7273 17.0986 21.6308C16.7931 21.9137 16.3525 22.0528 15.9477 22.1145C16.0725 22.3586 16.2739 22.5814 16.4438 22.796C16.9631 23.4516 17.5002 24.1282 18.3286 24.3985C18.7754 24.5443 19.3885 24.5336 19.8281 24.3563C19.8333 24.111 19.7934 23.6965 19.9795 23.5111C20.1791 23.3124 20.4529 23.3829 20.5711 23.6151L20.5795 23.6314C20.6332 23.7408 20.6231 23.8896 20.623 24.0088L20.6205 24.4683C20.6095 26.3663 20.8568 27.7358 21.7567 29.4789C22.3016 30.5344 22.7179 31.2176 23.0029 32.3796L23.0671 32.6744C23.074 32.7109 23.0773 32.7726 23.0963 32.8022C23.4496 32.6353 23.8117 32.5015 24.1901 32.4027L24.4719 32.3348C24.5388 32.3214 24.6101 32.3169 24.6748 32.2949L24.6739 30.1667L24.5575 28.7626C24.3628 27.2446 23.8233 25.8159 22.2359 25.3607C22.0887 25.3185 21.9413 25.2783 21.7873 25.278L21.6989 25.2787C21.8134 25.7674 22.4519 26.4453 22.9242 26.5933C23.0101 26.6202 23.1019 26.6219 23.1875 26.6477C23.7744 26.8242 23.5583 27.6142 22.9369 27.4706C21.9532 27.2432 20.7643 26.0192 20.9102 24.9677C20.9954 24.3545 21.6806 24.4249 22.1512 24.5045C24.3063 24.869 25.1252 26.7782 25.3638 28.7287L25.4804 30.224L25.4845 31.216L25.485 32.1956L27.9027 32.1992C27.9132 32.1477 27.9066 32.086 27.9063 32.0333L27.904 30.5494C27.9068 29.5729 28.0199 28.3202 28.2855 27.3935C28.7625 25.7296 29.934 24.5518 31.701 24.4713C32.1241 24.4521 32.3618 24.4727 32.4788 24.9479C32.6984 25.8401 31.6064 26.9494 30.8772 27.3011C30.6534 27.4091 30.2818 27.5882 30.0437 27.4321C29.8616 27.3129 29.7699 27.0641 29.9072 26.8777C30.0657 26.6627 30.4202 26.6361 30.6463 26.5085C30.9501 26.3369 31.6597 25.7211 31.6736 25.3233C31.5706 25.2256 31.2239 25.3354 31.1081 25.3671C29.3386 25.8516 28.9204 27.6627 28.7825 29.2497L28.711 30.1724L28.7138 32.3103C29.3116 32.4681 29.6981 32.4775 30.3032 32.8097C30.4128 31.8889 30.8141 31.0151 31.2381 30.2L31.8043 29.1179C32.4113 27.8502 32.762 26.4424 32.764 25.0341L32.7637 24.1879C32.7634 24.047 32.7507 23.8903 32.7689 23.7512C32.8177 23.3816 33.2814 23.2858 33.4753 23.5939C33.7029 23.9556 33.2999 24.2966 33.8804 24.4566C35.2224 24.8266 36.2693 23.6607 37.0047 22.722C37.1534 22.5323 37.2994 22.322 37.4686 22.1505C37.0676 22.0527 36.6213 21.8847 36.2787 21.6456C35.1431 22.5881 32.5715 22.9559 31.5338 21.6979C31.0991 21.171 30.9724 20.3972 31.2757 19.7781C30.734 19.4416 30.3524 19.2757 29.7002 19.2724L28.9531 19.2726ZM26.2912 32.9929C25.9642 32.9934 25.6006 32.9671 25.2788 33.0281C24.6897 33.1398 24.2118 33.1445 23.6398 33.4381C22.7171 33.9118 23.018 35.0101 23.7473 35.4984C24.3754 35.919 25.1782 35.8691 25.9002 35.8694L27.1041 35.8693C28.0311 35.8682 29.209 35.9819 29.9197 35.267C30.3269 34.8572 30.5207 34.1045 30.0599 33.6598C29.4508 33.0719 28.1688 32.9933 27.3282 32.9928L26.2912 32.9929ZM28.3654 36.6774L25.0312 36.6801C24.9551 36.68 24.846 36.6657 24.7733 36.6836L24.7929 36.6982C24.9948 36.8509 25.126 36.9781 25.3633 37.1312C26.4893 37.7948 27.7111 37.5253 28.6292 36.6693L28.3654 36.6774Z" fill="#373123"/>
<path d="M25.175 35.2475C24.8416 35.2591 24.6805 34.9593 24.45 34.7714C24.2344 34.5956 23.8593 34.4446 24.0152 34.0966C24.0725 33.9689 24.1696 33.9102 24.2969 33.8662C24.5962 33.8328 24.7947 33.9942 25.0081 34.1812C25.3066 34.4426 25.8302 35.0874 25.175 35.2475Z" fill="#373123"/>
<path d="M28.3915 35.2555L28.3018 35.28C27.9181 35.3611 27.8047 34.8752 28.0411 34.5383C28.2339 34.2634 28.5221 33.9276 28.8659 33.867C29.2095 33.8419 29.4956 34.092 29.3703 34.4116C29.3071 34.5728 28.9586 34.7234 28.826 34.8409C28.6705 34.9789 28.5847 35.1593 28.3915 35.2555Z" fill="#373123"/>
</g>
<defs>
<clipPath id="clip0_1_314">
<rect width="26.0092" height="26.0092" fill="white" transform="translate(13.6868 13.125)"/>
</clipPath>
</defs>
</svg>
