<svg width="53" height="52" viewBox="0 0 53 52" fill="none" xmlns="http://www.w3.org/2000/svg">
<rect x="1.27454" y="0.835449" width="50.6491" height="50.6491" rx="25.3246" fill="#E0C383"/>
<rect x="1.27454" y="0.835449" width="50.6491" height="50.6491" rx="25.3246" stroke="#C9982C"/>
<g clip-path="url(#clip0_1_321)">
<g clip-path="url(#clip1_1_321)">
<path d="M27.8836 37.095C27.6658 37.095 27.4894 36.9312 27.4894 36.7289V25.8612C27.4894 25.7129 27.5849 25.58 27.7325 25.5231L38.5437 21.3524C38.5921 21.3336 38.6433 21.3245 38.6949 21.3245C38.7461 21.3245 38.7973 21.3336 38.8453 21.352C38.942 21.3894 39.0192 21.4603 39.0591 21.5498C39.6707 22.9189 39.9816 24.3695 39.9816 25.8612C39.9816 32.0556 34.5546 37.095 27.8836 37.095ZM38.4763 22.1717L28.2778 26.1057V36.3568C34.3323 36.1633 39.1936 31.5296 39.1936 25.8612C39.1936 24.5895 38.9522 23.3498 38.4763 22.1717Z" fill="#373123"/>
<path d="M37.0324 20.7455L26.4637 24.8218V35.4457C26.4637 35.6476 26.2874 35.8118 26.0695 35.8118C19.3994 35.8114 13.9724 30.7721 13.9724 24.578C13.9724 18.3835 19.3994 13.3442 26.0699 13.3442C30.9775 13.3442 35.3646 16.0612 37.2453 20.267C37.3291 20.4534 37.2332 20.6673 37.0324 20.7455ZM26.0699 14.0763C19.8338 14.0763 14.7608 18.7869 14.7608 24.578C14.7608 30.246 19.6221 34.8797 25.6757 35.0736V24.578C25.6757 24.4297 25.7716 24.2965 25.9188 24.2399L36.3598 20.2119C34.5225 16.4722 30.526 14.0763 26.0699 14.0763Z" fill="#373123"/>
</g>
</g>
<defs>
<clipPath id="clip0_1_321">
<rect width="25.8246" height="25.8246" fill="white" transform="translate(13.6868 13.2478)"/>
</clipPath>
<clipPath id="clip1_1_321">
<rect width="26.0092" height="24.1514" fill="white" transform="matrix(1 0 0 -1 13.9724 37.2954)"/>
</clipPath>
</defs>
</svg>
