<svg width="47" height="46" viewBox="0 0 47 46" fill="none" xmlns="http://www.w3.org/2000/svg">
<circle cx="23.8457" cy="23.0562" r="22.9439" fill="#F21D1D"/>
<g clip-path="url(#clip0_1_504)">
<path d="M32.9688 17.7963C33.4057 19.4999 33.4057 23.0562 33.4057 23.0562C33.4057 23.0562 33.4057 26.6125 32.9688 28.3161C32.726 29.2577 32.0157 29.9986 31.1161 30.2491C29.4823 30.7042 23.8457 30.7042 23.8457 30.7042C23.8457 30.7042 18.212 30.7042 16.5754 30.2491C15.672 29.9948 14.9626 29.2549 14.7227 28.3161C14.2858 26.6125 14.2858 23.0562 14.2858 23.0562C14.2858 23.0562 14.2858 19.4999 14.7227 17.7963C14.9655 16.8546 15.6758 16.1137 16.5754 15.8633C18.212 15.4082 23.8457 15.4082 23.8457 15.4082C23.8457 15.4082 29.4823 15.4082 31.1161 15.8633C32.0195 16.1176 32.7289 16.8575 32.9688 17.7963ZM21.9337 26.4022L27.6697 23.0562L21.9337 19.7102V26.4022Z" fill="white"/>
</g>
<defs>
<clipPath id="clip0_1_504">
<rect width="22.9439" height="22.9439" fill="white" transform="translate(12.3738 11.584)"/>
</clipPath>
</defs>
</svg>
