<svg width="72" height="54" viewBox="0 0 72 54" fill="none" xmlns="http://www.w3.org/2000/svg">
<g clip-path="url(#clip0_91_1020)">
<path d="M0 0H72V54H0V0Z" fill="white"/>
<path d="M34.6274 44.8425L34.6049 44.82H34.5937L34.4474 44.6625L34.0199 44.1562L33.4687 43.4475L33.4012 43.3462L32.7037 43.1325L32.1862 42.8962L32.4562 42.5925L33.4012 42.9862L34.0987 43.1325L35.3924 44.0887L35.0212 44.415L34.6499 44.8087L34.7287 44.7525L34.8187 44.82L34.6274 44.8425ZM29.8349 43.4025C29.2008 43.3952 28.5799 43.2206 28.0349 42.8962C28.0349 42.8962 28.1137 42.75 28.2937 42.6262C28.4737 42.4912 28.7887 42.345 29.3062 42.3337C29.9212 42.3337 30.6524 42.5362 31.4999 42.9412C30.9954 43.2379 30.4203 43.3933 29.8349 43.3912V43.4025ZM27.1912 42.8175C27.0712 42.8175 26.9737 42.78 26.8987 42.705C26.834 42.6277 26.7913 42.5344 26.7749 42.435C26.7455 42.3097 26.7342 42.1809 26.7412 42.0525L26.8874 42.03C27.1124 42.03 27.2924 42.2212 27.3712 42.4125C27.4162 42.525 27.4237 42.6187 27.3937 42.6937C27.3637 42.7687 27.2962 42.8062 27.1912 42.8062V42.8175ZM31.8374 42.2775C30.2737 42.0525 29.6099 41.49 29.3287 41.0512C29.0362 40.59 29.1037 40.1512 29.1037 40.1512C29.1037 40.1512 29.1937 40.1287 29.3287 40.1287C29.7562 40.1287 30.8137 40.3425 31.8374 42.2662V42.2775ZM28.6312 41.9625C27.9637 41.9625 27.4612 41.85 27.1237 41.625C26.9783 41.5357 26.8612 41.407 26.7862 41.2537L26.7412 41.0737C26.9975 40.9662 27.2732 40.9126 27.5512 40.9162C27.9527 40.9306 28.3474 41.0246 28.7124 41.1926C29.0774 41.3606 29.4054 41.5993 29.6774 41.895C29.2949 41.94 28.9462 41.9625 28.6312 41.9625ZM25.4024 41.85C24.7049 41.85 23.7374 41.625 23.1299 41.0287C23.1299 41.0287 23.7937 40.86 24.5249 40.8375H24.6599C25.3274 40.8375 25.8299 40.965 26.1674 41.22C26.2799 41.31 26.3437 41.3925 26.3587 41.4675C26.3737 41.5425 26.3437 41.6062 26.2687 41.6587C26.1112 41.7712 25.8412 41.8312 25.4587 41.8387H25.4024V41.85ZM23.1187 40.6687C23.032 40.6616 22.9514 40.6213 22.8937 40.5562C22.8477 40.4887 22.817 40.4119 22.8037 40.3312C22.7699 40.1737 22.7812 40.0162 22.7812 40.005L22.8937 39.9825C22.9987 39.99 23.0737 40.0275 23.1187 40.095C23.1861 40.1584 23.2397 40.235 23.2762 40.32C23.3062 40.4175 23.3062 40.5 23.2762 40.5675C23.2762 40.6125 23.2087 40.68 23.1299 40.68L23.1187 40.6687ZM28.3949 40.5562C28.2749 40.5562 28.1774 40.5187 28.1024 40.4437C28.0377 40.3664 27.995 40.2732 27.9787 40.1737C27.9493 40.0485 27.9379 39.9197 27.9449 39.7912L28.0912 39.7687C28.3162 39.7687 28.5074 39.96 28.5749 40.1512C28.6199 40.2637 28.6312 40.3575 28.6087 40.4325C28.5712 40.5075 28.4962 40.545 28.3837 40.545L28.3949 40.5562ZM25.8299 40.4437C24.4124 40.3987 23.6699 39.9937 23.3099 39.6562C23.1538 39.5198 23.0241 39.3559 22.9274 39.1725C22.8749 39.0525 22.8487 38.9775 22.8487 38.9475C22.8637 38.91 22.9762 38.895 23.1862 38.9025H23.2312C23.7037 38.9025 24.6824 39.105 25.8187 40.4437H25.8299ZM27.3599 40.3087C26.5508 40.2188 25.7986 39.8487 25.2337 39.2625C25.025 39.0362 24.8677 38.7676 24.7724 38.475C24.7724 38.475 24.9074 38.4412 25.1099 38.43H25.2224C25.7849 38.4412 26.8312 38.7 27.3599 40.3087ZM21.5099 39.7462C21.1506 39.7495 20.792 39.7118 20.4412 39.6337C19.8449 39.4762 19.5862 39.2512 19.4737 39.0825C19.4277 39.0149 19.397 38.9381 19.3837 38.8575V38.7675C19.3837 38.7675 19.7774 38.655 20.3287 38.6437C20.6078 38.6367 20.8869 38.6593 21.1612 38.7112C21.7339 38.8349 22.2442 39.1579 22.6012 39.6225C22.6012 39.6225 22.1512 39.7575 21.5099 39.7575V39.7462ZM24.1537 38.8012C24.1013 38.8057 24.0486 38.7978 23.9997 38.7783C23.9509 38.7588 23.9073 38.7281 23.8724 38.6887C23.8077 38.6114 23.765 38.5182 23.7487 38.4187C23.7037 38.2387 23.7149 38.0587 23.7149 38.0362L23.8499 38.0025H23.8612C24.0862 38.0025 24.2662 38.205 24.3449 38.3962C24.3899 38.5087 24.3974 38.5987 24.3674 38.6662C24.3299 38.7412 24.2587 38.7825 24.1537 38.79V38.8012ZM22.1737 38.52C21.7941 38.4118 21.4308 38.2528 21.0937 38.0475C20.5987 37.7437 19.9799 37.2037 19.9124 36.36L20.0249 36.3487H20.0587C20.2049 36.3487 20.5087 36.3825 20.8799 36.6637C21.3524 37.0312 21.7837 37.65 22.1737 38.52ZM23.4674 38.475C23.157 38.334 22.869 38.1483 22.6124 37.9237C21.9556 37.354 21.4429 36.637 21.1162 35.8312C21.1162 35.8312 21.2174 35.775 21.3749 35.7637H21.4424C21.6674 35.7637 21.9937 35.865 22.3537 36.2587C22.7812 36.7087 23.1562 37.4475 23.4787 38.475H23.4674ZM20.1037 38.3737C19.6649 38.3737 19.5187 38.1487 19.4737 38.0362C19.4301 37.9294 19.4146 37.8132 19.4287 37.6987L19.6537 37.6762C19.7934 37.6718 19.9322 37.7 20.0592 37.7586C20.1861 37.8172 20.2976 37.9045 20.3849 38.0137C20.4074 38.0587 20.4749 38.1712 20.4187 38.2725C20.3737 38.3475 20.2687 38.385 20.1037 38.385V38.3737ZM19.1474 37.1587C18.8083 37.1625 18.4694 37.1361 18.1349 37.08C17.7524 37.0125 17.5387 36.6862 17.4149 36.4162C17.3024 36.135 17.2574 35.8537 17.2574 35.8537C18.4499 35.8875 19.0237 36.2362 19.2824 36.5287C19.4488 36.6948 19.5522 36.9135 19.5749 37.1475C19.5749 37.1475 19.3949 37.17 19.1474 37.17V37.1587ZM20.3849 35.9212L20.1149 35.5387C19.9687 35.3137 19.8449 35.0887 19.8449 34.9087C19.8449 34.7175 19.7999 34.3462 19.7774 34.1212L19.7099 33.615C19.7437 33.615 20.4524 33.885 20.4524 34.56C20.4524 35.235 20.3849 35.91 20.3849 35.91V35.9212ZM19.4624 35.8537H19.4399C18.6688 35.6213 17.9659 35.2043 17.3924 34.6387C17.1974 34.4137 17.0812 34.0612 17.0437 33.5812C17.0212 33.2437 17.0437 32.9625 17.0437 32.9287L17.1674 32.9175C17.3174 32.9175 17.5049 32.9925 17.7299 33.1425C17.9387 33.2905 18.1344 33.4561 18.3149 33.6375C18.6749 33.9975 18.9562 34.3575 18.9562 34.3575C18.9899 34.4025 19.1812 34.7737 19.3499 35.1337C19.4289 35.299 19.4893 35.4726 19.5299 35.6512C19.5449 35.7187 19.5449 35.7712 19.5299 35.8087L19.4962 35.8537H19.4512H19.4624Z" fill="#435125"/>
<path d="M32.1637 44.8425L32.1862 44.82H32.1974L32.3437 44.6625L32.7712 44.1562L33.3224 43.4475L33.3899 43.3462L34.0874 43.1325L34.6049 42.8962L34.3349 42.5925L33.3899 42.9862L32.6924 43.1325L31.3987 44.0887L31.7699 44.415L32.1412 44.8087L32.0624 44.7525L31.9724 44.82L32.1637 44.8425ZM36.9562 43.4025C37.5903 43.3952 38.2113 43.2206 38.7562 42.8962C38.7562 42.8962 38.6774 42.75 38.4974 42.6262C38.3174 42.4912 38.0024 42.345 37.4849 42.3337C36.8699 42.3337 36.1387 42.5362 35.2912 42.9412C35.7958 43.2379 36.3709 43.3933 36.9562 43.3912V43.4025ZM39.5999 42.8175C39.7199 42.8175 39.8174 42.78 39.8924 42.705C39.9571 42.6277 39.9999 42.5344 40.0162 42.435C40.0456 42.3097 40.057 42.1809 40.0499 42.0525L39.9037 42.03C39.6787 42.03 39.4987 42.2212 39.4199 42.4125C39.3749 42.525 39.3674 42.6187 39.3974 42.6937C39.4274 42.7687 39.4949 42.8062 39.5999 42.8062V42.8175ZM34.9537 42.2775C36.5174 42.0525 37.1812 41.49 37.4624 41.0512C37.7549 40.59 37.6874 40.1512 37.6874 40.1512C37.6874 40.1512 37.5974 40.1287 37.4624 40.1287C37.0349 40.1287 35.9774 40.3425 34.9537 42.2662V42.2775ZM38.1599 41.9625C38.8274 41.9625 39.3299 41.85 39.6674 41.625C39.8129 41.5357 39.9299 41.407 40.0049 41.2537L40.0499 41.0737C39.7936 40.9662 39.5179 40.9126 39.2399 40.9162C38.8384 40.9306 38.4437 41.0246 38.0788 41.1926C37.7138 41.3606 37.3858 41.5993 37.1137 41.895C37.4962 41.94 37.8449 41.9625 38.1599 41.9625ZM41.3887 41.85C42.0862 41.85 43.0537 41.625 43.6612 41.0287C43.6612 41.0287 42.9974 40.86 42.2662 40.8375H42.1312C41.4637 40.8375 40.9612 40.965 40.6237 41.22C40.5112 41.31 40.4474 41.3925 40.4324 41.4675C40.4174 41.5425 40.4474 41.6062 40.5224 41.6587C40.6799 41.7712 40.9499 41.8312 41.3324 41.8387H41.3887V41.85ZM43.6724 40.6687C43.7591 40.6616 43.8397 40.6213 43.8974 40.5562C43.9434 40.4887 43.9742 40.4119 43.9874 40.3312C44.0212 40.1737 44.0099 40.0162 44.0099 40.005L43.8974 39.9825C43.7924 39.99 43.7174 40.0275 43.6724 40.095C43.6051 40.1584 43.5515 40.235 43.5149 40.32C43.4849 40.4175 43.4849 40.5 43.5149 40.5675C43.5149 40.6125 43.5824 40.68 43.6612 40.68L43.6724 40.6687ZM38.3962 40.5562C38.5162 40.5562 38.6137 40.5187 38.6887 40.4437C38.7534 40.3664 38.7961 40.2732 38.8124 40.1737C38.8419 40.0485 38.8532 39.9197 38.8462 39.7912L38.6999 39.7687C38.4749 39.7687 38.2837 39.96 38.2162 40.1512C38.1712 40.2637 38.1599 40.3575 38.1824 40.4325C38.2199 40.5075 38.2949 40.545 38.4074 40.545L38.3962 40.5562ZM40.9612 40.4437C42.3787 40.3987 43.1212 39.9937 43.4812 39.6562C43.6373 39.5198 43.767 39.3559 43.8637 39.1725C43.9162 39.0525 43.9424 38.9775 43.9424 38.9475C43.9274 38.91 43.8149 38.895 43.6049 38.9025H43.5599C43.0874 38.9025 42.1087 39.105 40.9724 40.4437H40.9612ZM39.4312 40.3087C40.2403 40.2188 40.9925 39.8487 41.5574 39.2625C41.7661 39.0362 41.9234 38.7676 42.0187 38.475C42.0187 38.475 41.8837 38.4412 41.6812 38.43H41.5687C41.0062 38.4412 39.9599 38.7 39.4312 40.3087ZM45.2812 39.7462C45.6406 39.7495 45.9991 39.7118 46.3499 39.6337C46.9462 39.4762 47.2049 39.2512 47.3174 39.0825C47.3634 39.0149 47.3941 38.9381 47.4074 38.8575V38.7675C47.4074 38.7675 47.0137 38.655 46.4624 38.6437C46.1833 38.6367 45.9043 38.6593 45.6299 38.7112C45.0572 38.8349 44.5469 39.1579 44.1899 39.6225C44.1899 39.6225 44.6399 39.7575 45.2812 39.7575V39.7462ZM42.6374 38.8012C42.6899 38.8057 42.7426 38.7978 42.7914 38.7783C42.8402 38.7588 42.8838 38.7281 42.9187 38.6887C42.9834 38.6114 43.0261 38.5182 43.0424 38.4187C43.0874 38.2387 43.0762 38.0587 43.0762 38.0362L42.9412 38.0025H42.9299C42.7049 38.0025 42.5249 38.205 42.4462 38.3962C42.4012 38.5087 42.3937 38.5987 42.4237 38.6662C42.4612 38.7412 42.5324 38.7825 42.6374 38.79V38.8012ZM44.6174 38.52C44.9971 38.4118 45.3603 38.2528 45.6974 38.0475C46.1924 37.7437 46.8112 37.2037 46.8787 36.36L46.7662 36.3487H46.7324C46.5862 36.3487 46.2824 36.3825 45.9112 36.6637C45.4387 37.0312 45.0074 37.65 44.6174 38.52ZM43.3237 38.475C43.6341 38.334 43.9222 38.1483 44.1787 37.9237C44.8355 37.354 45.3482 36.637 45.6749 35.8312C45.6749 35.8312 45.5737 35.775 45.4162 35.7637H45.3487C45.1237 35.7637 44.7974 35.865 44.4374 36.2587C44.0099 36.7087 43.6349 37.4475 43.3124 38.475H43.3237ZM46.6874 38.3737C47.1262 38.3737 47.2724 38.1487 47.3174 38.0362C47.361 37.9294 47.3765 37.8132 47.3624 37.6987L47.1374 37.6762C46.9977 37.6718 46.8589 37.7 46.732 37.7586C46.605 37.8172 46.4935 37.9045 46.4062 38.0137C46.3837 38.0587 46.3162 38.1712 46.3724 38.2725C46.4174 38.3475 46.5224 38.385 46.6874 38.385V38.3737ZM47.6437 37.1587C47.9829 37.1625 48.3217 37.1361 48.6562 37.08C49.0387 37.0125 49.2524 36.6862 49.3762 36.4162C49.4887 36.135 49.5337 35.8537 49.5337 35.8537C48.3412 35.8875 47.7674 36.2362 47.5087 36.5287C47.3423 36.6948 47.2389 36.9135 47.2162 37.1475C47.2162 37.1475 47.3962 37.17 47.6437 37.17V37.1587ZM46.4062 35.9212L46.6762 35.5387C46.8224 35.3137 46.9462 35.0887 46.9462 34.9087C46.9462 34.7175 46.9912 34.3462 47.0137 34.1212L47.0812 33.615C47.0474 33.615 46.3387 33.885 46.3387 34.56C46.3387 35.235 46.4062 35.91 46.4062 35.91V35.9212ZM47.3287 35.8537H47.3512C48.1224 35.6213 48.8252 35.2043 49.3987 34.6387C49.5937 34.4137 49.7099 34.0612 49.7474 33.5812C49.7699 33.2437 49.7474 32.9625 49.7474 32.9287L49.6237 32.9175C49.4737 32.9175 49.2862 32.9925 49.0612 33.1425C48.8525 33.2905 48.6568 33.4561 48.4762 33.6375C48.1162 33.9975 47.8349 34.3575 47.8349 34.3575C47.8012 34.4025 47.6099 34.7737 47.4412 35.1337C47.3622 35.299 47.3019 35.4726 47.2612 35.6512C47.2462 35.7187 47.2462 35.7712 47.2612 35.8087L47.2949 35.8537H47.3399H47.3287Z" fill="#435125"/>
<path d="M58.3875 8.59497L58.185 8.67372L58.095 8.70747L57.8475 8.69622L57.6 8.80872L57.1725 9.10122L57.1612 9.11247L56.9925 9.15747L56.8462 9.08997L56.7675 9.13497L56.7337 9.30372L56.655 9.42747L56.5537 9.49497L56.2162 9.52872L55.935 9.68622L55.5525 9.57372L55.3837 9.65247L55.0125 9.98997L54.8212 10.0687H54.765L54.5062 10.0575L54.405 10.0912L54.2475 10.2375L53.955 10.26L53.8537 10.3275L53.7075 10.62L53.55 10.8L53.46 10.8112L53.37 10.7775L53.2912 10.7887L53.2575 10.98L53.19 11.0587L52.9875 11.1262L52.83 11.2612L52.6837 11.3287H52.4587L52.2675 11.4412L51.9187 11.4637L51.7725 11.5987L51.7387 11.6325L51.6712 11.6662L51.5587 11.7337L51.5362 11.7562L51.4012 11.7337L51.2437 11.79L51.1762 11.7L51.0637 11.7562L50.9287 11.7675L50.7487 11.6887L50.6025 11.6212L50.5012 11.6437L50.4675 11.8125V11.835L50.355 11.97L50.1637 12.0937L50.1412 12.1275L49.9162 12.42L49.4887 12.87L49.1287 13.05L48.7575 13.1625L48.4987 13.3762L47.8237 13.7137L46.7325 14.2537L46.5075 14.3212L46.1925 14.3662L45.63 14.58L45.135 14.7262L45.1012 14.7375L45.0112 14.7712L44.3025 14.985L43.9762 14.94L43.785 15.0187L43.2787 14.9625H42.93L42.705 15.0075L42.2887 15.21L41.58 15.5475L41.355 15.7725L40.995 15.9525L40.5675 16.0875V15.9075L40.4212 15.9525L40.3087 15.9862L39.9712 16.0312H39.78L39.6562 15.9975H39.6337L38.9362 16.2337L38.1487 16.3125L37.755 16.4362H37.4625L37.2825 16.4925L36.9225 16.5375L36.7875 16.5037L36.765 16.4925L35.7075 16.5375L35.2237 16.4812L34.9987 16.5375L34.605 16.4025L34.0425 16.335L33.9075 16.3012L33.615 16.2112L33.48 16.29L33.3675 16.3012L33.1425 16.2112H33.0525L32.85 16.2787L32.7375 16.2562L32.625 16.1662L32.3887 16.1325L32.2312 16.0087L31.3875 16.1212L31.1625 16.0537L30.3862 15.8287H30.2737L30.1162 15.9412L29.8912 16.0312L29.6775 16.0762L29.4075 16.0875L29.0925 16.0087L28.7775 15.8512L28.6537 15.8175L28.3837 15.8512H28.305L27.81 15.5925L27.18 15.1987L26.7525 14.985L26.5837 14.9625L26.5612 15.0412L26.64 15.2887L26.6737 15.5475V15.7725L26.6625 15.9187L26.6962 16.0425L26.8537 16.2225L26.9212 16.3912L26.9662 16.8637V17.3475L26.8875 18.1125L26.865 18.225L26.775 18.63L26.6962 19.0012L26.37 19.98L26.2912 20.0925L26.0662 20.2387L25.5825 20.5762L25.2225 20.7787L25.11 20.8237L24.8175 20.8462H24.6375L24.4125 20.7225L24.1875 20.6662L23.895 20.4525L23.58 20.385L23.22 20.1825L23.13 20.07L22.9387 20.0475L22.6687 19.9687L22.5675 19.935L22.5 19.9237L22.1625 19.9125L21.8362 19.7662L21.6675 19.7212H21.4425L21.2062 19.8337L21.0825 19.8787L20.925 19.8225H20.8125L20.7 20.0137L20.6775 20.0475L20.5875 20.0925H20.3962L20.3062 20.1262L20.1825 20.1825L20.07 20.2275L20.0137 20.25H19.98L19.9237 20.2725H19.8562L19.7212 20.205L19.6537 20.1712L19.5412 20.1487L19.485 20.1825L19.4737 20.3962L19.4175 20.52L19.2375 20.6775L19.0575 20.835L18.945 21.015L18.6075 21.7687L18.3937 22.0725L18.3375 22.1512L18.1125 22.3875L17.9212 22.5337L17.4825 22.8712L17.0662 23.04L16.7062 23.1075H16.5262L16.1887 23.0625L15.8962 22.9725L15.5587 22.77L15.21 22.4775L14.6812 21.9712L14.6137 21.9262L14.5912 21.915L14.4337 21.8025H14.31L14.265 21.8925L14.2312 22.005L14.2087 22.1062L14.1525 22.6687V22.7025L14.1862 22.9387L14.5912 23.5012L14.7037 23.7937L14.7262 23.8275L14.805 23.9625L14.8725 24.075L15.0187 24.48L14.9175 24.705L14.9625 24.8625L14.85 24.9525L14.8275 25.0875L15.1762 25.5375L15.255 25.7287L15.1762 25.9987L15.03 26.1562L14.9962 26.19L15.0187 26.3025L15.1762 26.46L15.4575 26.7075L15.6037 27.0675L15.7162 27.18L15.8512 27.1462L15.9187 27.2025H16.0312L16.1437 27.315L16.2112 27.3375L16.3237 27.3937L16.4137 27.5062L16.425 27.8662L16.5937 28.2937V28.575L16.7062 28.7437L16.7287 28.8787L16.6725 29.25L16.8075 29.3625L16.9425 29.34L17.0325 29.3512L17.1787 29.475L17.3587 29.745L17.5387 29.7225L17.6512 29.7675L18.18 30.2512L18.2925 30.3187L18.3937 30.3637L18.5062 30.4762L18.6637 30.3637H18.6862L18.8662 30.3412L18.945 30.3975L19.1025 30.4987H19.2937L19.7437 30.6337L19.9237 30.6787L20.3062 30.915L20.475 31.0162L20.565 31.095L20.7 31.2075L20.9475 31.32L21.1725 31.365L21.285 31.3875L21.3862 31.4212L21.8587 31.6125L22.1175 31.6687L22.3425 31.7587L22.5225 31.815H22.6575L22.8375 31.6687H23.0062L23.1525 31.6912L23.2987 31.6687L23.5237 31.5337L23.5575 31.4662L23.715 31.3987L24.255 31.3312L24.4125 31.3762L24.8175 31.2075L25.0875 31.275L25.3125 31.1962L25.8412 31.3087L25.9762 31.41L26.1337 31.5787H26.325L26.2462 31.7025L26.4712 31.95L26.685 32.2537L26.6962 32.2987L26.8425 32.7375L26.955 32.895L27.0337 33.1087V33.2437L26.9212 33.345L26.8987 33.39V33.4125L26.9212 33.4687L26.9662 33.4462L27.045 33.4012L27.1575 33.3787L27.3375 33.4012L27.4612 33.4125L27.6525 33.3225L27.7875 33.255L27.99 33.345H28.215L28.3162 33.3787L28.5862 33.5025L28.7212 33.5137L28.7662 33.48L28.8 33.4125L28.7887 33.3225L28.6762 33.1987L28.4512 32.9287L28.3612 32.7937L28.2937 32.6025L28.2712 32.355L28.2487 32.1862L28.2825 31.9612L28.3387 31.8825L28.3837 31.7025L28.395 31.6575L28.53 31.4887L28.8675 31.2637L29.2275 30.9487L29.5087 30.7575L29.8012 30.6337V30.6L29.8462 30.6112L30.5887 30.3525L30.9262 30.2962L33.1762 30.4537L33.255 30.4312L33.3337 30.2175L33.3675 30.1837L33.4012 30.1612L33.6487 30.0487L33.7612 30.0262L34.0762 30.105L34.2112 30.1387L34.425 30.0262H34.5712L34.875 29.8575H35.0662L35.145 29.835L35.5162 29.565L35.865 29.4637L35.955 29.4187L35.9887 29.3962L36.36 29.205L36.585 29.025L36.7875 28.9125L37.0125 28.8675L37.575 28.8225L37.6987 28.6312L37.9462 28.5975L38.0925 28.4287L38.2612 28.3612L38.385 28.1812L38.4975 28.035L38.6325 27.9562L39.0937 27.9225L39.6337 27.99L39.7125 27.945L39.825 27.5062L39.96 27.4275L40.2975 26.9212V26.7412L40.3087 26.5837L40.365 26.3587L40.3312 25.9762L40.3762 25.5712L40.59 25.065L40.7812 24.8625L41.085 24.6487L41.2425 24.5812L41.4675 24.5475H41.49L41.5462 24.525H42.5812L42.84 24.5137L43.4812 24.6262H43.5262L43.74 24.705L43.9875 24.8962L44.2575 25.155L44.3025 25.2L44.4712 25.2787L44.5275 25.3012L44.6625 25.2787L44.865 25.1662L45.0225 25.0537L45.225 24.9412V24.9187L45.3487 24.75L45.3937 24.6712L45.7987 24.5137L46.2712 24.4912L46.3275 24.4575H46.35L46.4737 24.3H46.5862L46.8787 24.4125L47.07 24.3675L47.2275 24.4237L47.3512 24.4125L47.5762 24.3787L47.835 24.5587L47.9812 24.5812L48.4875 24.8737H48.5325L48.555 24.885L48.6112 24.8625L48.7012 24.84H48.7125L48.7237 24.8512L48.7912 24.93L48.87 24.9412L48.96 24.8287L48.9262 24.7612L48.915 24.7387L48.7237 24.705L48.5662 24.4237L48.7237 24.255L48.4762 23.9625L48.4312 23.9062V23.895L48.3412 23.76L47.9137 23.1075L47.3512 22.6575L47.16 22.5112L47.0925 22.455L46.7887 22.1512L46.575 21.87L46.5525 21.8137L46.5075 21.7125L46.3837 21.4425L46.1587 21.2737L45.9787 21.0712L45.5962 20.5537L45.54 20.475L45.45 20.4187H45.2587L45.2475 20.3962H45.2362V20.385L45.3262 20.295L45.4387 20.2725L45.4725 20.1712L45.2812 19.62V19.5975L45.27 19.4287L45.4162 18.63L45.4387 18.5287L45.7087 18L45.8662 17.865L46.0462 17.5162L46.2037 17.2912L46.35 17.145L46.3725 17.1337L46.6312 16.9762L46.8562 16.9425L47.07 16.9087L47.4412 17.0212H47.7787L47.8575 17.01L48.015 16.9875L48.2737 16.9087L48.3975 16.83L48.465 16.74L48.6 16.29L48.645 16.1437L48.7237 15.9862L49.2075 15.435L49.5675 15.0975L50.3775 14.5125L50.7712 14.2762L50.9737 14.1525L52.785 13.3425L53.2575 12.87L53.505 12.6225L53.9325 12.33L54.4387 12.1162L54.8887 11.7787L54.9787 11.655L55.0912 11.2612L55.2037 11.2387L55.2825 11.0475L55.3162 10.9912L55.665 10.7437L55.71 10.7212L57.0937 10.0237L57.2962 10.0575L57.4087 9.88872L57.8025 9.82122H57.8812L57.9825 9.76497L58.0612 9.61872V9.58497L58.0725 9.20247L58.1625 9.10122L58.2075 8.85372L58.2525 8.78622L58.2975 8.72997L58.41 8.65122L58.3875 8.59497Z" fill="#D47600"/>
</g>
<defs>
<clipPath id="clip0_91_1020">
<rect width="72" height="54" fill="white"/>
</clipPath>
</defs>
</svg>
