<svg width="72" height="54" viewBox="0 0 72 54" fill="none" xmlns="http://www.w3.org/2000/svg">
<g clip-path="url(#clip0_91_961)">
<mask id="mask0_91_961" style="mask-type:luminance" maskUnits="userSpaceOnUse" x="0" y="0" width="72" height="54">
<path d="M0 0H72V54H0V0Z" fill="white"/>
</mask>
<g mask="url(#mask0_91_961)">
<path d="M0 0H72V54H0V0Z" fill="#CC0000"/>
<path d="M0 0H72V3.85875H0V0Z" fill="#CC0000"/>
<path d="M0 3.85864H72V7.71739H0V3.85864Z" fill="white"/>
<path d="M0 7.71753H72V11.5763H0V7.71753Z" fill="#CC0000"/>
<path d="M0 11.5762H72V15.4124H0V11.5762Z" fill="white"/>
<path d="M0 15.4238H72V19.2826H0V15.4238Z" fill="#CC0000"/>
<path d="M0 19.2825H72V23.1412H0V19.2825Z" fill="white"/>
<path d="M0 23.1414H72V27.0001H0V23.1414Z" fill="#CC0000"/>
<path d="M0 27H72V30.8587H0V27Z" fill="white"/>
<path d="M0 30.8586H72V34.7174H0V30.8586Z" fill="#CC0000"/>
<path d="M0 34.7175H72V38.5763H0V34.7175Z" fill="white"/>
<path d="M0 38.5762H72V42.4124H0V38.5762Z" fill="#CC0000"/>
<path d="M0 42.4238H72V46.2826H0V42.4238Z" fill="white"/>
<path d="M0 46.2825H72V50.1412H0V46.2825Z" fill="#CC0000"/>
<path d="M0 50.1414H72V54.0001H0V50.1414Z" fill="white"/>
<path d="M0 0.0561523H36V30.9149H0V0.0561523Z" fill="#000066"/>
<path d="M23.3437 8.3026L24.0187 12.8814L26.6062 9.05635L25.2112 13.4664L29.205 11.1264L26.0437 14.5014L30.6562 14.1414L26.3475 15.8064L30.6562 17.4714L26.0437 17.1114L29.205 20.4864L25.2112 18.1464L26.595 22.5676L24.0075 18.7314L23.3325 23.3101L22.6687 18.7314L20.0812 22.5564L21.4762 18.1464L17.4825 20.4864L20.6325 17.1114L16.02 17.4714L20.34 15.8064L16.0312 14.1414L20.6437 14.5014L17.4825 11.1264L21.4762 13.4664L20.0812 9.0451L22.6687 12.8814L23.3437 8.3026ZM19.5975 8.49385C18.3795 7.94883 17.0444 7.71762 15.7141 7.82134C14.3838 7.92506 13.1006 8.3604 11.9819 9.08761C10.8631 9.81481 9.94431 10.8107 9.30945 11.9844C8.67458 13.158 8.34386 14.472 8.34748 15.8064C8.34386 17.1407 8.67458 18.4547 9.30945 19.6283C9.94431 20.802 10.8631 21.7979 11.9819 22.5251C13.1006 23.2523 14.3838 23.6876 15.7141 23.7914C17.0444 23.8951 18.3795 23.6639 19.5975 23.1189C18.2525 24.085 16.667 24.6613 15.0156 24.7844C13.3642 24.9074 11.7108 24.5725 10.2375 23.8164C8.76586 23.0592 7.5315 21.9109 6.67011 20.4978C5.80873 19.0846 5.35368 17.4613 5.35498 15.8064C5.35553 14.1518 5.81217 12.5294 6.67473 11.1174C7.53729 9.7055 8.77238 8.55866 10.2443 7.80295C11.7162 7.04723 13.3679 6.7119 15.018 6.83378C16.6681 6.95567 18.2526 7.53007 19.5975 8.49385Z" fill="#FFCC00"/>
</g>
</g>
<defs>
<clipPath id="clip0_91_961">
<rect width="72" height="54" fill="white"/>
</clipPath>
</defs>
</svg>
