<svg width="80" height="54" viewBox="0 0 80 54" fill="none" xmlns="http://www.w3.org/2000/svg">
<mask id="mask0_91_172" style="mask-type:luminance" maskUnits="userSpaceOnUse" x="0" y="0" width="80" height="54">
<path d="M0 0H80V54H0V0Z" fill="white"/>
</mask>
<g mask="url(#mask0_91_172)">
<path fill-rule="evenodd" clip-rule="evenodd" d="M-5.00439 0H85.0044V54H-5.00439V0Z" fill="#0C590B"/>
<path fill-rule="evenodd" clip-rule="evenodd" d="M-5.00439 0H17.5564V54H-5.00439V0Z" fill="white"/>
<path fill-rule="evenodd" clip-rule="evenodd" d="M53.4418 23.7726L49.7855 23.0765L47.8636 25.9558L47.4652 22.623L43.8324 21.8636L47.2308 20.4925L46.9144 17.1492L49.4222 19.6382L52.8558 18.3304L50.9926 21.2414L53.4535 23.7726H53.4418Z" fill="white"/>
<path fill-rule="evenodd" clip-rule="evenodd" d="M54.8139 32.2734C54.0365 33.8069 52.9291 35.1866 51.5558 36.3329C50.1825 37.4791 48.5705 38.3692 46.8128 38.9517C45.0552 39.5342 43.1867 39.7975 41.3153 39.7266C39.444 39.6556 37.6067 39.2517 35.9098 38.5383C34.2034 37.8289 32.6693 36.8236 31.3951 35.5801C30.1209 34.3366 29.1316 32.8791 28.4839 31.2912C27.8363 29.7033 27.5428 28.016 27.6205 26.326C27.6981 24.6359 28.1453 22.9762 28.9364 21.4418C29.7308 19.85 30.8852 18.4248 32.326 17.2571C33.7668 16.0895 35.4624 15.205 37.3044 14.6602C36.8218 15.0217 36.3602 15.4054 35.9215 15.8098C33.6349 18.0886 32.4211 21.0775 32.5359 24.1461C32.6508 27.2148 34.0853 30.1233 36.5371 32.2586C38.9888 34.3938 42.2662 35.5888 45.678 35.5916C49.0899 35.5943 52.3696 34.4047 54.8257 32.2734H54.8139Z" fill="white"/>
</g>
</svg>
