<svg width="32" height="32" viewBox="0 0 32 32" fill="none" xmlns="http://www.w3.org/2000/svg">
<path d="M20 27C20 26.725 19.775 26.5 19.5 26.5V27.5C19.775 27.5 20 27.275 20 27Z" fill="#C9982C"/>
<path d="M28.31 1.11C28.22 1.04 28.11 1 28 1H14.5C14.225 1 14 1.225 14 1.5V12.235C12.995 11.17 11.575 10.5 10 10.5C7.48 10.5 5.36 12.205 4.71 14.515C4.64 14.505 4.57 14.5 4.5 14.5C3.675 14.5 3 15.175 3 16C3 16.825 3.675 17.5 4.5 17.5C4.5 18.05 4.95 18.5 5.5 18.5H6V18.68C6 19.68 6.595 20.585 7.515 20.98L8 21.19V21.505H7C3.965 21.505 1.5 23.97 1.5 27.005V30.005H1V31.005H26V30.005H24.665L25.52 27.005H30.5C30.775 27.005 31 26.78 31 26.505V3.5C31 3.35 30.93 3.205 30.81 3.11L28.31 1.11ZM4.5 16V16.5C4.225 16.5 4 16.275 4 16C4 15.725 4.225 15.5 4.5 15.5H4.525C4.51 15.665 4.5 15.83 4.5 15.995V16ZM6 16V17.5H5.5V16C5.5 13.52 7.52 11.5 10 11.5C12.48 11.5 14.5 13.52 14.5 16V17.59L14 17.69V16C14 14.07 12.43 12.5 10.5 12.5H9.5C7.57 12.5 6 14.07 6 16ZM11.995 14.01C10.83 14.06 10.21 14.625 9.66 15.13C9.135 15.615 8.72 16 7.83 16C7.525 16 7.26 15.955 7.015 15.86C7.09 14.55 8.17 13.5 9.5 13.5H10.5C11.065 13.5 11.58 13.695 11.995 14.01ZM7.905 20.06C7.355 19.825 6.995 19.28 6.995 18.68V16.9C7.255 16.965 7.53 17 7.825 17C9.105 17 9.76 16.4 10.335 15.865C10.86 15.38 11.275 15 12.16 15C12.405 15 12.615 15.04 12.82 15.1C12.93 15.38 12.995 15.68 12.995 16V17.89L9.895 18.51L10.09 19.49L12.975 18.915C12.895 19.42 12.565 19.855 12.085 20.06L10.585 20.705C10.21 20.865 9.78 20.865 9.405 20.705L7.905 20.06ZM10.995 21.615V22C10.995 22.55 10.545 23 9.995 23C9.445 23 8.995 22.55 8.995 22V21.615H9.01C9.325 21.755 9.66 21.82 9.995 21.82C10.33 21.82 10.665 21.755 10.98 21.62H10.995V21.615ZM8.995 29.995H7.995V28.995H8.495C8.77 28.995 8.995 29.22 8.995 29.495V29.995ZM9.995 29.995V29.495C9.995 28.67 9.32 27.995 8.495 27.995H5.495V26.7L6.35 25.845L5.645 25.14L4.645 26.14C4.55 26.235 4.5 26.36 4.5 26.495V28.495C4.5 28.77 4.725 28.995 5 28.995H7V29.995H2.5V26.995C2.5 24.515 4.52 22.495 7 22.495H8.065C8.29 23.355 9.07 23.995 10 23.995C10.93 23.995 11.715 23.355 11.935 22.495H13C13.725 22.495 14.425 22.67 15.055 22.995H15C14.775 22.995 14.58 23.145 14.52 23.36L12.625 29.995H10H9.995ZM23.62 29.995H13.665L15.38 23.995H25.34L23.625 29.995H23.62ZM29.995 25.995H25.8L26.475 23.63C26.52 23.48 26.49 23.315 26.395 23.19C26.3 23.065 26.155 22.99 25.995 22.99H16.76C15.735 22.025 14.405 21.49 12.995 21.49H11.995V21.175L12.48 20.965C13.39 20.575 13.98 19.685 13.995 18.695L14.695 18.555C15.16 18.46 15.5 18.05 15.5 17.575V17.485C16.325 17.485 17 16.81 17 15.985C17 15.16 16.325 14.485 15.5 14.485C15.43 14.485 15.36 14.49 15.29 14.5C15.215 14.225 15.115 13.96 15 13.705V2H27.825L30 3.74V26L29.995 25.995ZM15.475 15.505C15.475 15.505 15.49 15.505 15.5 15.505C15.775 15.505 16 15.73 16 16.005C16 16.28 15.775 16.505 15.5 16.505V16.005C15.5 15.84 15.49 15.675 15.475 15.51V15.505Z" fill="#C9982C"/>
<path d="M25.57 11.5H24.43C24.25 10.8 23.7 10.255 23 10.07V8H24.5C24.775 8 25 7.775 25 7.5V3.5C25 3.225 24.775 3 24.5 3H20.5C20.225 3 20 3.225 20 3.5V7.5C20 7.775 20.225 8 20.5 8H22V10.07C21.3 10.25 20.755 10.8 20.57 11.5H19.43C19.205 10.64 18.43 10 17.5 10C16.395 10 15.5 10.895 15.5 12C15.5 13.105 16.395 14 17.5 14C18.43 14 19.205 13.36 19.43 12.5H20.57C20.71 13.04 21.07 13.485 21.545 13.745L19.77 15.52C18.775 15.635 18 16.475 18 17.495C18 18.6 18.895 19.495 20 19.495C21.105 19.495 22 18.6 22 17.495C22 16.74 21.575 16.09 20.955 15.75L22.5 14.205L24.045 15.75C23.425 16.09 23 16.74 23 17.495C23 18.6 23.895 19.495 25 19.495C26.105 19.495 27 18.6 27 17.495C27 16.47 26.225 15.635 25.23 15.52L23.455 13.745C23.93 13.485 24.29 13.035 24.43 12.5H25.57C25.795 13.36 26.57 14 27.5 14C28.605 14 29.5 13.105 29.5 12C29.5 10.895 28.605 10 27.5 10C26.57 10 25.795 10.64 25.57 11.5ZM17.5 13C16.95 13 16.5 12.55 16.5 12C16.5 11.45 16.95 11 17.5 11C18.05 11 18.5 11.45 18.5 12C18.5 12.55 18.05 13 17.5 13ZM21 17.5C21 18.05 20.55 18.5 20 18.5C19.45 18.5 19 18.05 19 17.5C19 16.95 19.45 16.5 20 16.5C20.55 16.5 21 16.95 21 17.5ZM25 16.5C25.55 16.5 26 16.95 26 17.5C26 18.05 25.55 18.5 25 18.5C24.45 18.5 24 18.05 24 17.5C24 16.95 24.45 16.5 25 16.5ZM21 7V4H24V7H21ZM22.5 13C21.95 13 21.5 12.55 21.5 12C21.5 11.45 21.95 11 22.5 11C23.05 11 23.5 11.45 23.5 12C23.5 12.55 23.05 13 22.5 13ZM28.5 12C28.5 12.55 28.05 13 27.5 13C26.95 13 26.5 12.55 26.5 12C26.5 11.45 26.95 11 27.5 11C28.05 11 28.5 11.45 28.5 12Z" fill="#C9982C"/>
</svg>
