<svg width="32" height="32" viewBox="0 0 32 32" fill="none" xmlns="http://www.w3.org/2000/svg">
<path d="M13.1639 3.52612C13.06 3.34256 13.1248 3.10888 13.3088 3.00494L13.8263 2.71238C14.0096 2.60819 14.2436 2.67325 14.3477 2.85731C14.4516 3.04106 14.3865 3.27481 14.2027 3.37863L13.685 3.671C13.6257 3.70469 13.561 3.72069 13.4973 3.72069C13.3638 3.72069 13.2342 3.65087 13.1639 3.52612ZM10.8495 5.25094C10.9133 5.25094 10.9779 5.23481 11.0373 5.20131L11.5549 4.90869C11.739 4.80506 11.8038 4.57144 11.6998 4.38744C11.5957 4.20306 11.362 4.13869 11.1788 4.24256L10.661 4.535C10.4772 4.63888 10.4123 4.87256 10.5161 5.0565C10.5865 5.18087 10.716 5.25094 10.8495 5.25094ZM10.8495 6.766C10.9147 6.766 10.9808 6.74906 11.0409 6.71438L11.5587 6.41431C11.7417 6.30837 11.8038 6.07419 11.698 5.8915C11.5916 5.70869 11.3572 5.64688 11.1752 5.75219L10.6575 6.05219C10.4747 6.15819 10.4124 6.39231 10.5182 6.57506C10.5892 6.69763 10.7178 6.766 10.8495 6.766ZM13.4973 5.23588C13.5622 5.23588 13.6284 5.21925 13.6887 5.18412L14.2063 4.88431C14.3893 4.77813 14.4517 4.54419 14.3457 4.36131C14.2397 4.17825 14.0053 4.11694 13.823 4.22213L13.3054 4.52206C13.1223 4.62813 13.06 4.862 13.1659 5.04488C13.237 5.16731 13.3653 5.23588 13.4973 5.23588ZM13.8264 5.73531L13.3088 6.02775C13.1249 6.13175 13.0601 6.36513 13.164 6.549C13.2343 6.6735 13.3639 6.7435 13.4973 6.7435C13.5611 6.7435 13.6258 6.72756 13.6851 6.69387L14.2028 6.40131C14.3866 6.29737 14.4517 6.064 14.3478 5.88019C14.2437 5.69581 14.0096 5.63112 13.8264 5.73531ZM11.1788 7.26562L10.661 7.558C10.4772 7.66188 10.4123 7.89563 10.5161 8.07938C10.5865 8.20388 10.716 8.27394 10.8495 8.27394C10.9133 8.27394 10.9779 8.25806 11.0373 8.22425L11.5549 7.93169C11.739 7.828 11.8038 7.59425 11.6998 7.41056C11.5957 7.22631 11.362 7.16125 11.1788 7.26562ZM13.4973 8.25894C13.5622 8.25894 13.6284 8.24219 13.6887 8.20731L14.2063 7.90719C14.3893 7.80144 14.4517 7.56712 14.3457 7.38444C14.2397 7.20138 14.0053 7.13975 13.823 7.24513L13.3054 7.54513C13.1223 7.65112 13.06 7.88512 13.1659 8.068C13.237 8.19044 13.3653 8.25894 13.4973 8.25894ZM10.8495 9.78919C10.9147 9.78919 10.9808 9.77231 11.0409 9.73738L11.5587 9.43738C11.7417 9.33119 11.8038 9.09719 11.698 8.9145C11.5916 8.73181 11.3572 8.67013 11.1752 8.77525L10.6575 9.07537C10.4747 9.18112 10.4124 9.41544 10.5182 9.59794C10.5892 9.7205 10.7178 9.78919 10.8495 9.78919ZM10.8495 11.3045C10.9147 11.3045 10.9808 11.2877 11.0409 11.2528L11.5587 10.9528C11.7417 10.8468 11.8038 10.6128 11.698 10.4299C11.5916 10.2471 11.3572 10.1854 11.1752 10.2906L10.6575 10.5906C10.4747 10.6964 10.4124 10.9307 10.5182 11.1132C10.5892 11.2359 10.7178 11.3045 10.8495 11.3045ZM13.4973 9.77394C13.5622 9.77394 13.6284 9.75706 13.6887 9.72231L14.2063 9.42225C14.3893 9.31644 14.4517 9.08225 14.3457 8.89962C14.2397 8.71656 14.0053 8.655 13.823 8.76031L13.3054 9.0605C13.1223 9.16631 13.06 9.40037 13.1659 9.58319C13.237 9.70544 13.3653 9.77394 13.4973 9.77394ZM7.81884 8.52137C7.60741 8.52137 7.43628 8.69225 7.43628 8.90369V12.7369C7.43628 12.9482 7.60741 13.1194 7.81884 13.1194C8.03016 13.1194 8.20103 12.9482 8.20103 12.7369V8.90369C8.20103 8.69225 8.03016 8.52137 7.81884 8.52137ZM29.5812 22.5162C29.6028 23.0637 29.4084 23.5859 29.034 23.9871L22.6813 30.8349C22.2085 31.3509 21.582 31.6247 20.8705 31.6247H11.3291C10.7287 31.6247 10.2119 31.4387 9.75009 31.0566C9.30491 30.6857 8.51266 30.222 7.70603 29.848V29.8544C7.70603 30.7601 6.96922 31.4972 6.06359 31.4972H2.80041C2.58909 31.4972 2.41797 31.3261 2.41797 31.1149V21.4981C2.41797 21.2867 2.58909 21.1157 2.80041 21.1157H5.63709C5.62759 21.0819 5.62084 21.0476 5.62084 21.0108V15.1298C5.62084 14.9931 5.69372 14.8671 5.81191 14.7987L6.31116 14.5101V8.32619C6.31116 8.18937 6.38403 8.063 6.50247 7.99463L8.27272 6.9745C8.39159 6.90625 8.53809 6.90662 8.65653 6.97581L9.19903 7.29244V3.88569C9.19903 3.74906 9.27178 3.62263 9.39034 3.55438L14.8135 0.426C14.9321 0.357875 15.0778 0.358125 15.1963 0.426L21.7457 4.21063C21.7785 4.20169 21.8119 4.19325 21.846 4.19325H25.1089C25.153 4.19325 25.1972 4.20063 25.2388 4.216L27.4818 5.026C27.4832 5.02663 27.484 5.02744 27.4853 5.02781C27.5218 5.04163 27.555 5.0615 27.5856 5.08525C27.5906 5.08912 27.596 5.0925 27.6003 5.09656C27.6295 5.12138 27.6542 5.15069 27.675 5.18344C27.6765 5.18606 27.679 5.18794 27.6808 5.19031L29.0308 7.46325C29.119 7.612 29.0968 7.80162 28.9757 7.9255L23.8562 13.1774V15.9844L26.193 17.3337C26.3111 17.4024 26.3841 17.5284 26.3841 17.6651V20.9016C26.6983 20.6862 27.0675 20.5615 27.4588 20.5469C28.0018 20.5256 28.5269 20.7191 28.9255 21.0907C29.3265 21.4655 29.5594 21.9716 29.5812 22.5162ZM8.47153 22.1622C8.82178 21.974 9.18184 21.8883 9.61141 21.8883H10.9299C10.78 21.7336 10.6435 21.567 10.5178 21.3931H6.97578C7.37334 21.6599 7.64878 22.0956 7.69772 22.5969L8.47153 22.1622ZM6.38572 15.3506V17.5613L10.4089 16.398C11.0823 15.3809 12.1661 14.6623 13.422 14.4724V11.2844L6.90828 15.0485C6.90609 15.0502 6.90303 15.0514 6.90072 15.0527L6.38572 15.3506ZM6.38572 20.6282H10.075C9.81991 20.0659 9.67903 19.4509 9.67903 18.8203C9.67903 18.2959 9.77584 17.7951 9.94478 17.3286L6.38572 18.3579V20.6282ZM13.6544 21.8883C14.1747 21.8883 14.6312 22.031 15.049 22.3197C16.6288 21.8888 17.7205 20.4743 17.7205 18.8203C17.7205 16.8144 16.0883 15.1824 14.0822 15.1824C12.0763 15.1824 10.444 16.8144 10.444 18.8203C10.444 20.0546 11.0892 21.2197 12.1323 21.8883H13.6544ZM15.799 22.8723L16.2828 23.2312C16.5936 23.4612 16.9168 23.5686 17.3001 23.5686H20.9383C21.7431 23.5686 22.4482 24.0051 22.8288 24.6539L25.857 21.3931H17.658C17.1941 22.0381 16.5573 22.5554 15.799 22.8723ZM23.7961 18.3257L22.1005 17.5105V20.6282H23.7961V18.3257ZM21.3358 17.1426L19.6478 16.3309V20.6282H21.3358V17.1426ZM25.619 17.8861L23.329 16.5637C23.299 16.5516 23.2712 16.5349 23.2453 16.5156L14.1868 11.2846V14.4226C16.5662 14.4792 18.4852 16.4278 18.4852 18.8204C18.4852 19.4624 18.349 20.0751 18.1017 20.6283H18.8829V15.7224C18.8829 15.5909 18.9503 15.4686 19.0616 15.3985C19.1734 15.3284 19.3127 15.3205 19.4311 15.3778L24.3443 17.7404C24.4766 17.8039 24.5608 17.9381 24.5608 18.0852V20.6283H25.6188V17.8861H25.619ZM23.0912 15.5427V13.1775L17.9751 7.92944C17.975 7.92944 17.975 7.92919 17.9746 7.92919L17.9715 7.9255C17.97 7.92438 17.9695 7.92269 17.9683 7.92131C17.943 7.8945 17.922 7.86412 17.9057 7.83094C17.903 7.82606 17.9 7.82163 17.8975 7.81675C17.8829 7.78438 17.8736 7.74994 17.8681 7.71413C17.8671 7.70662 17.8663 7.69938 17.8659 7.69163C17.8627 7.65694 17.8627 7.62181 17.8697 7.586C17.8701 7.58512 17.8703 7.58444 17.8706 7.58381C17.8713 7.57981 17.8728 7.57644 17.8739 7.57256C17.882 7.53794 17.895 7.50569 17.9115 7.47556C17.9137 7.47162 17.9138 7.46706 17.9162 7.46325L19.2666 5.19031C19.312 5.11425 19.3823 5.05581 19.4659 5.02575L20.7971 4.54638L15.5372 1.50706V11.1806L23.0912 15.5427ZM25.0418 4.95806H21.9125L19.8541 5.69931L18.852 7.38644L20.8397 7.77112H25.5655L25.3777 6.73706C25.3396 6.529 25.4777 6.33013 25.6854 6.29231C25.8935 6.25281 26.0925 6.39219 26.1301 6.6L26.4003 8.08525C26.4206 8.197 26.3905 8.31188 26.3177 8.399C26.2451 8.48625 26.1374 8.53613 26.0239 8.53613H21.4537L22.4353 10.3005C22.538 10.4852 22.4714 10.7179 22.2868 10.8209C22.228 10.8535 22.1642 10.8691 22.101 10.8691C21.9667 10.8691 21.8364 10.7983 21.7664 10.6726L20.5552 8.49531L19.3718 8.26612L23.4735 12.4739L28.2228 7.60175L27.1654 5.82119L25.9668 6.09613C25.9388 6.1025 25.91 6.10569 25.8811 6.10569H21.3923L21.1793 7.27694C21.146 7.46144 20.9847 7.59106 20.8035 7.59106C20.7808 7.59106 20.7578 7.58906 20.7345 7.58456C20.5266 7.54688 20.3887 7.348 20.4266 7.14L20.6966 5.65469C20.7298 5.47288 20.8881 5.34088 21.073 5.34088H25.8378L25.9985 5.30369L25.0418 4.95806ZM9.96384 4.10656V12.399L13.6132 10.2902C13.7315 10.2222 13.8775 10.2222 13.9958 10.2902L14.7723 10.7387V1.333L9.96384 4.10656ZM7.07616 14.0679L9.19897 12.8413V8.17825L8.46241 7.74825L7.07616 8.54744V14.0679ZM6.94128 29.8544V29.2686C6.94128 29.267 6.94128 29.2652 6.94128 29.2635V22.7583C6.94128 22.2744 6.54722 21.8805 6.06359 21.8805H3.18284V30.7321H6.06359C6.53916 30.7321 6.94128 30.3302 6.94128 29.8544ZM28.8165 22.5466C28.803 22.2045 28.6563 21.8866 28.4032 21.6504C28.155 21.4191 27.8363 21.3031 27.4873 21.3111C27.1447 21.3241 26.8289 21.4694 26.5978 21.7202L23.1104 25.475C23.1222 25.5682 23.1285 25.6627 23.1285 25.7589C23.1285 26.9665 22.1459 27.9489 20.9384 27.9489H16.2798C16.0685 27.9489 15.8974 27.7779 15.8974 27.5666C15.8974 27.355 16.0685 27.1842 16.2798 27.1842H20.9384C21.724 27.1842 22.3635 26.5448 22.3635 25.7589C22.3635 24.9731 21.7241 24.3335 20.9384 24.3335H17.3002C16.7527 24.3335 16.2709 24.1741 15.8275 23.8461L14.6644 22.9831C14.3603 22.7579 14.0397 22.6531 13.6545 22.6531H9.61153C9.30503 22.6531 9.07428 22.7068 8.83991 22.8328L7.70609 23.47V29.0089C8.55128 29.3753 9.60134 29.9371 10.2388 30.4678C10.5613 30.7347 10.9081 30.8594 11.3291 30.8594H20.8705C21.3687 30.8594 21.7887 30.6767 22.1185 30.316L28.474 23.4656C28.7086 23.2142 28.8303 22.8882 28.8165 22.5466ZM13.6996 21.2433C13.6996 21.4547 13.8707 21.6258 14.0822 21.6258C14.2933 21.6258 14.4646 21.4547 14.4646 21.2433V20.9579H14.6297C15.3246 20.9579 15.8898 20.3928 15.8898 19.6979C15.8898 19.0031 15.3246 18.4379 14.6297 18.4379H13.5345C13.2617 18.4379 13.0393 18.2158 13.0393 17.9426C13.0393 17.6658 13.2617 17.4401 13.5345 17.4401H15.5072C15.7188 17.4401 15.8898 17.269 15.8898 17.0577C15.8898 16.8463 15.7188 16.6753 15.5072 16.6753H14.4646V16.39C14.4646 16.1786 14.2933 16.0076 14.0822 16.0076C13.8707 16.0076 13.6996 16.1786 13.6996 16.39V16.6753H13.5344C12.8395 16.6753 12.2745 17.2437 12.2745 17.9426C12.2745 18.6378 12.8395 19.2029 13.5344 19.2029H14.6296C14.9072 19.2029 15.1247 19.4204 15.1247 19.6979C15.1247 19.971 14.9024 20.1931 14.6296 20.1931H12.6568C12.4454 20.1931 12.2745 20.3643 12.2745 20.5757C12.2745 20.7868 12.4454 20.9579 12.6568 20.9579H13.6996V21.2433Z" fill="#C9982C"/>
</svg>
