<svg width="32" height="32" viewBox="0 0 32 32" fill="none" xmlns="http://www.w3.org/2000/svg">
<g clip-path="url(#clip0_308_122)">
<path d="M13.7927 26.1877V7.62499C13.7927 6.75662 13.0888 6.05273 12.2205 6.05273H3.13866C2.27029 6.05273 1.56641 6.75668 1.56641 7.62499V26.1877" stroke="#C9982C" stroke-miterlimit="10" stroke-linecap="round" stroke-linejoin="round"/>
<path d="M24.4137 19.0639H21.6992C21.1189 19.0639 20.6484 18.5934 20.6484 18.0131V12.5118C20.6484 11.487 21.4792 10.6562 22.504 10.6562H23.5055" stroke="#C9982C" stroke-miterlimit="10" stroke-linecap="round" stroke-linejoin="round"/>
<path d="M16.3447 10.6562H18.1434C18.6164 10.6562 18.9998 11.0397 18.9998 11.5127V18.2074C18.9998 18.6804 18.6164 19.0639 18.1434 19.0639H16.3447C15.8717 19.0639 15.4883 18.6804 15.4883 18.2074V11.5127C15.4883 11.0397 15.8717 10.6562 16.3447 10.6562Z" stroke="#C9982C" stroke-miterlimit="10" stroke-linecap="round" stroke-linejoin="round"/>
<path d="M15.4883 20.8047H17.244" stroke="#C9982C" stroke-miterlimit="10" stroke-linecap="round" stroke-linejoin="round"/>
<path d="M29.4094 26.1872H27.4492V23.3694C27.4492 22.8049 27.9064 22.3477 28.4709 22.3477H28.9052" stroke="#C9982C" stroke-miterlimit="10" stroke-linecap="round" stroke-linejoin="round"/>
<path d="M25.3716 24.2401C24.942 24.2401 24.5938 23.8918 24.5938 23.4622V22.1119C24.5938 21.6823 24.942 21.334 25.3716 21.334C25.8013 21.334 26.1495 21.6823 26.1495 22.1119V23.4622C26.1495 23.8918 25.8013 24.2401 25.3716 24.2401Z" stroke="#C9982C" stroke-miterlimit="10" stroke-linecap="round" stroke-linejoin="round"/>
<path d="M22.778 31.5307C24.6402 31.5307 26.1498 30.0211 26.1498 28.1589C26.1498 26.2967 24.6402 24.7871 22.778 24.7871C20.9159 24.7871 19.4062 26.2967 19.4062 28.1589C19.4062 30.0211 20.9159 31.5307 22.778 31.5307Z" stroke="#C9982C" stroke-miterlimit="10" stroke-linecap="round" stroke-linejoin="round"/>
<path d="M22.7774 29.8106C23.69 29.8106 24.4298 29.0708 24.4298 28.1583C24.4298 27.2457 23.69 26.5059 22.7774 26.5059C21.8648 26.5059 21.125 27.2457 21.125 28.1583C21.125 29.0708 21.8648 29.8106 22.7774 29.8106Z" stroke="#C9982C" stroke-miterlimit="10" stroke-linecap="round" stroke-linejoin="round"/>
<path d="M6.55538 31.5307C8.41757 31.5307 9.92717 30.0211 9.92717 28.1589C9.92717 26.2967 8.41757 24.7871 6.55538 24.7871C4.6932 24.7871 3.18359 26.2967 3.18359 28.1589C3.18359 30.0211 4.6932 31.5307 6.55538 31.5307Z" stroke="#C9982C" stroke-miterlimit="10" stroke-linecap="round" stroke-linejoin="round"/>
<path d="M6.55474 29.8106C7.46733 29.8106 8.20713 29.0708 8.20713 28.1583C8.20713 27.2457 7.46733 26.5059 6.55474 26.5059C5.64215 26.5059 4.90234 27.2457 4.90234 28.1583C4.90234 29.0708 5.64215 29.8106 6.55474 29.8106Z" stroke="#C9982C" stroke-miterlimit="10" stroke-linecap="round" stroke-linejoin="round"/>
<path d="M3.18748 28.3159H1.5645C0.976474 28.3159 0.5 27.8395 0.5 27.2514C0.5 26.9577 0.619431 26.6918 0.81181 26.4993C1.00419 26.3063 1.27077 26.1875 1.5645 26.1875H3.81955" stroke="#C9982C" stroke-miterlimit="10" stroke-linecap="round" stroke-linejoin="round"/>
<path d="M19.4078 28.3164H9.92188" stroke="#C9982C" stroke-miterlimit="10" stroke-linecap="round" stroke-linejoin="round"/>
<path d="M27.3384 28.3164H26.1484" stroke="#C9982C" stroke-miterlimit="10" stroke-linecap="round" stroke-linejoin="round"/>
<path d="M25.5156 26.1875H29.4114C29.9995 26.1875 30.4762 26.6642 30.4762 27.2517C30.4762 27.5451 30.3567 27.8122 30.164 28.0043C29.997 28.172 29.7736 28.2833 29.5252 28.3096" stroke="#C9982C" stroke-miterlimit="10" stroke-linecap="round" stroke-linejoin="round"/>
<path d="M9.29297 26.1879H13.7924V9.6946C13.7924 8.70236 14.597 7.89844 15.5892 7.89844H19.4631" stroke="#C9982C" stroke-miterlimit="10" stroke-linecap="round" stroke-linejoin="round"/>
<path d="M21.6328 8.09961C22.6313 8.49 23.372 9.40966 23.4934 10.5327L24.415 19.0636L27.7871 20.4325C28.3545 20.6627 28.7543 21.1801 28.8337 21.787L29.4118 26.187" stroke="#C9982C" stroke-miterlimit="10" stroke-linecap="round" stroke-linejoin="round"/>
<path d="M11.2924 14.8636L11.6959 15.2672C11.9217 15.4936 12.0487 15.8002 12.0487 16.1199C12.0487 16.4402 11.9217 16.7468 11.6959 16.9732L8.49207 20.1764C8.19865 20.4698 7.72381 20.4698 7.43039 20.1764L6.786 19.5326C6.49321 19.2392 6.49321 18.7638 6.786 18.471L9.13709 16.1199L6.786 13.7694C6.49321 13.476 6.49321 13.0012 6.786 12.7077L7.43039 12.0633C7.72381 11.7706 8.19865 11.7706 8.49207 12.0633L9.76521 13.3365" stroke="#C9982C" stroke-miterlimit="10" stroke-linecap="round" stroke-linejoin="round"/>
<path d="M6.58534 13.0744L5.57452 12.0636C5.28142 11.7705 4.80614 11.7705 4.51303 12.0636L3.86827 12.7077C3.57516 13.0008 3.57516 13.4761 3.86827 13.7692L6.21923 16.1202L3.86827 18.4706C3.57516 18.7637 3.57516 19.239 3.86827 19.5327L4.51303 20.1768C4.80614 20.4699 5.28142 20.4699 5.57452 20.1768L6.58534 19.166" stroke="#C9982C" stroke-miterlimit="10" stroke-linecap="round" stroke-linejoin="round"/>
</g>
<defs>
<clipPath id="clip0_308_122">
<rect width="32" height="32" fill="white"/>
</clipPath>
</defs>
</svg>
