<svg width="32" height="32" viewBox="0 0 32 32" fill="none" xmlns="http://www.w3.org/2000/svg">
<path d="M29.0675 3.32467H11.6965V2.63867C11.6965 2.50606 11.6438 2.37889 11.5501 2.28512C11.4563 2.19135 11.3291 2.13867 11.1965 2.13867H1.5C1.36739 2.13867 1.24021 2.19135 1.14645 2.28512C1.05268 2.37889 1 2.50606 1 2.63867V9.34467C1.00001 9.43399 1.02394 9.52168 1.06931 9.59862C1.11468 9.67556 1.17984 9.73894 1.258 9.78217L3.626 11.0922V23.0822C3.62666 23.5945 3.83048 24.0857 4.19275 24.4479C4.55502 24.8102 5.04617 25.014 5.5585 25.0147H13.233L14.15 25.9327C14.2134 25.9953 14.2637 26.0699 14.298 26.1521C14.3324 26.2343 14.35 26.3226 14.35 26.4117V29.3617C14.35 29.4943 14.4027 29.6215 14.4964 29.7152C14.5902 29.809 14.7174 29.8617 14.85 29.8617H19.777C19.9096 29.8617 20.0368 29.809 20.1306 29.7152C20.2243 29.6215 20.277 29.4943 20.277 29.3617V26.4117C20.277 26.3226 20.2946 26.2343 20.329 26.1521C20.3633 26.0699 20.4136 25.9953 20.477 25.9327L21.395 25.0147H29.0675C29.5798 25.014 30.071 24.8102 30.4333 24.4479C30.7955 24.0857 30.9993 23.5945 31 23.0822V5.25717C30.9993 4.74484 30.7955 4.25369 30.4333 3.89142C30.071 3.52915 29.5798 3.32533 29.0675 3.32467ZM29.0675 4.32467C29.3148 4.3248 29.5519 4.42309 29.7267 4.59794C29.9016 4.77279 29.9999 5.0099 30 5.25717V7.58067H11.6965V4.32467H29.0675ZM2 3.13867H10.6965V9.04967L6.3465 11.4552L2 9.04967V3.13867ZM19.768 25.2257C19.6117 25.381 19.4878 25.5658 19.4034 25.7694C19.3191 25.973 19.2759 26.1913 19.2765 26.4117V28.8617H15.35V26.4117C15.3506 26.1913 15.3074 25.973 15.2231 25.7694C15.1387 25.5658 15.0148 25.381 14.8585 25.2257L12.3 22.6672C12.2367 22.6046 12.1864 22.5301 12.152 22.448C12.1177 22.3658 12.1 22.2777 12.1 22.1887V17.5447C12.1 17.3651 12.1713 17.1929 12.2983 17.066C12.4253 16.939 12.5974 16.8677 12.777 16.8677C12.9566 16.8677 13.1287 16.939 13.2557 17.066C13.3827 17.1929 13.454 17.3651 13.454 17.5447V20.7387C13.4535 20.9866 13.5083 21.2315 13.6143 21.4556C13.7204 21.6797 13.875 21.8773 14.067 22.0342L14.5355 22.4197C14.8357 22.6649 15.2113 22.7991 15.599 22.7997H19.025C19.413 22.7992 19.7889 22.6646 20.089 22.4187L20.557 22.0347C20.749 21.8777 20.9036 21.6799 21.0096 21.4558C21.1156 21.2316 21.1704 20.9866 21.17 20.7387V17.5447C21.17 17.3651 21.2413 17.1929 21.3683 17.066C21.4953 16.939 21.6674 16.8677 21.847 16.8677C22.0266 16.8677 22.1988 16.939 22.3257 17.066C22.4527 17.1929 22.524 17.3651 22.524 17.5447V22.1887C22.524 22.2777 22.5063 22.3658 22.472 22.448C22.4376 22.5301 22.3873 22.6046 22.324 22.6672L19.768 25.2257ZM29.068 24.0147H22.393L23.0335 23.3742C23.1898 23.2189 23.3137 23.0342 23.398 22.8307C23.4824 22.6272 23.5255 22.409 23.525 22.1887V17.5447C23.525 17.3244 23.4816 17.1064 23.3973 16.9029C23.3131 16.6994 23.1895 16.5146 23.0338 16.3589C22.8781 16.2031 22.6932 16.0796 22.4898 15.9953C22.2863 15.911 22.0682 15.8677 21.848 15.8677C21.6278 15.8677 21.4097 15.911 21.2062 15.9953C21.0028 16.0796 20.8179 16.2031 20.6622 16.3589C20.5065 16.5146 20.3829 16.6994 20.2987 16.9029C20.2144 17.1064 20.171 17.3244 20.171 17.5447V20.7387C20.1712 20.8388 20.149 20.9376 20.1062 21.0281C20.0634 21.1185 20.001 21.1983 19.9235 21.2617L19.456 21.6452C19.3348 21.7447 19.1829 21.7993 19.026 21.7997H18.026C18.582 21.6293 19.0583 21.265 19.3684 20.773C19.6784 20.2811 19.8016 19.6942 19.7155 19.1191C19.6293 18.544 19.3396 18.019 18.899 17.6395C18.4584 17.26 17.8963 17.0512 17.3148 17.0512C16.7332 17.0512 16.1711 17.26 15.7305 17.6395C15.2899 18.019 15.0002 18.544 14.914 19.1191C14.8279 19.6942 14.9511 20.2811 15.2611 20.773C15.5712 21.265 16.0475 21.6293 16.6035 21.7997H15.6035C15.447 21.7992 15.2953 21.745 15.174 21.6462L14.706 21.2612C14.628 21.1982 14.5651 21.1186 14.5218 21.0282C14.4786 20.9378 14.4561 20.8389 14.456 20.7387V17.5447C14.456 17.3244 14.4126 17.1064 14.3283 16.9029C14.2441 16.6994 14.1205 16.5146 13.9648 16.3589C13.8091 16.2031 13.6242 16.0796 13.4208 15.9953C13.2173 15.911 12.9992 15.8677 12.779 15.8677C12.5588 15.8677 12.3407 15.911 12.1372 15.9953C11.9338 16.0796 11.7489 16.2031 11.5932 16.3589C11.4375 16.5146 11.3139 16.6994 11.2297 16.9029C11.1454 17.1064 11.102 17.3244 11.102 17.5447V22.1887C11.1015 22.409 11.1446 22.6272 11.229 22.8307C11.3133 23.0342 11.4372 23.2189 11.5935 23.3742L12.234 24.0147H5.5585C5.31127 24.0144 5.07424 23.9161 4.89942 23.7413C4.7246 23.5664 4.62626 23.3294 4.626 23.0822V11.6457L6.106 12.4647C6.18008 12.5056 6.26335 12.5271 6.348 12.5271C6.43265 12.5271 6.51592 12.5056 6.59 12.4647L11.44 9.78217C11.5183 9.73901 11.5835 9.67565 11.629 9.59871C11.6744 9.52177 11.6984 9.43404 11.6985 9.34467V8.58067H30V23.0807C30.0001 23.3282 29.902 23.5656 29.7271 23.7407C29.5523 23.9159 29.315 24.0144 29.0675 24.0147H29.068ZM17.313 20.9182C17.0307 20.9182 16.7547 20.8345 16.52 20.6776C16.2852 20.5208 16.1023 20.2979 15.9942 20.0371C15.8862 19.7763 15.8579 19.4893 15.9129 19.2124C15.9679 18.9355 16.1038 18.6811 16.3034 18.4815C16.503 18.2818 16.7573 18.1458 17.0342 18.0907C17.3111 18.0355 17.5981 18.0637 17.8589 18.1717C18.1198 18.2797 18.3428 18.4625 18.4997 18.6972C18.6566 18.9319 18.7404 19.2079 18.7405 19.4902C18.7401 19.8687 18.5896 20.2316 18.322 20.4993C18.0544 20.767 17.6915 20.9176 17.313 20.9182Z" fill="#C9982C"/>
<path d="M27.9766 6.39594C28.0424 6.39661 28.1078 6.38413 28.1687 6.35924C28.2297 6.33435 28.2851 6.29754 28.3316 6.25098C28.3782 6.20442 28.415 6.14903 28.4399 6.08807C28.4648 6.0271 28.4773 5.96178 28.4766 5.89594C28.4765 5.81352 28.4559 5.73241 28.4166 5.65995C28.3773 5.5875 28.3206 5.52597 28.2516 5.48094C28.2266 5.46594 28.1966 5.45044 28.1666 5.43594C28.1366 5.42144 28.1066 5.41594 28.0716 5.40594C28.007 5.39594 27.9412 5.39594 27.8766 5.40594C27.8466 5.41594 27.8166 5.42594 27.7816 5.43594C27.7466 5.44594 27.7266 5.46594 27.6966 5.48094C27.6704 5.50116 27.6453 5.52286 27.6216 5.54594C27.5751 5.59151 27.5383 5.646 27.5134 5.70614C27.4885 5.76629 27.476 5.83084 27.4766 5.89594C27.4759 5.96178 27.4884 6.0271 27.5133 6.08807C27.5382 6.14903 27.575 6.20442 27.6215 6.25098C27.6681 6.29754 27.7235 6.33435 27.7845 6.35924C27.8454 6.38413 27.9107 6.39661 27.9766 6.39594Z" fill="#C9982C"/>
<path d="M25.0018 6.35982C25.1242 6.40651 25.2594 6.40651 25.3818 6.35982C25.4426 6.33264 25.4983 6.29546 25.5468 6.24982C25.5934 6.20327 25.6302 6.14789 25.6551 6.08693C25.68 6.02598 25.6925 5.96066 25.6918 5.89482C25.6908 5.76375 25.6388 5.63822 25.5468 5.54482C25.4512 5.45338 25.3241 5.40234 25.1918 5.40234C25.0595 5.40234 24.9324 5.45338 24.8368 5.54482C24.7437 5.6385 24.6914 5.76523 24.6914 5.89732C24.6914 6.02941 24.7437 6.15614 24.8368 6.24982C24.8853 6.29546 24.941 6.33264 25.0018 6.35982Z" fill="#C9982C"/>
<path d="M22.0513 6.24939C22.1212 6.31991 22.2106 6.368 22.3079 6.38753C22.4053 6.40707 22.5063 6.39716 22.598 6.35908C22.6897 6.321 22.768 6.25646 22.8229 6.1737C22.8778 6.09094 22.9069 5.99371 22.9063 5.89439C22.9062 5.81197 22.8856 5.73087 22.8463 5.65841C22.807 5.58595 22.7503 5.52443 22.6813 5.47939C22.6563 5.46439 22.6263 5.44889 22.5963 5.43439C22.5663 5.41989 22.5363 5.41439 22.5013 5.40439C22.4205 5.38793 22.337 5.39213 22.2583 5.41661C22.1796 5.44108 22.1084 5.48504 22.0513 5.54439C21.9593 5.63779 21.9073 5.76332 21.9063 5.89439C21.9056 5.96024 21.9181 6.02555 21.943 6.0865C21.9679 6.14746 22.0047 6.20284 22.0513 6.24939Z" fill="#C9982C"/>
<path d="M20.3499 11.4493C20.3051 11.3098 20.222 11.1858 20.1099 11.0914C19.9979 10.9971 19.8615 10.9362 19.7164 10.9158L18.5414 10.7493L18.0169 9.68576C17.9521 9.55438 17.8518 9.44375 17.7274 9.3664C17.603 9.28904 17.4594 9.24805 17.3129 9.24805C17.1664 9.24805 17.0229 9.28904 16.8985 9.3664C16.774 9.44375 16.6738 9.55438 16.6089 9.68576L16.0844 10.7493L14.9109 10.9198C14.7659 10.9406 14.6297 11.0017 14.5176 11.096C14.4055 11.1904 14.3221 11.3142 14.2768 11.4535C14.2314 11.5928 14.226 11.742 14.2611 11.8843C14.2963 12.0265 14.3705 12.156 14.4754 12.2583L15.3254 13.0868L15.1254 14.2558C15.1002 14.4002 15.116 14.5488 15.171 14.6846C15.226 14.8205 15.3181 14.9382 15.4367 15.0243C15.5554 15.1105 15.6958 15.1616 15.842 15.1718C15.9883 15.182 16.1345 15.151 16.2639 15.0823L17.3139 14.5323L18.3639 15.0823C18.4936 15.15 18.6397 15.1801 18.7856 15.1691C18.9315 15.1582 19.0714 15.1067 19.1896 15.0204C19.3078 14.9341 19.3995 14.8165 19.4543 14.6808C19.5091 14.5452 19.5249 14.3969 19.4999 14.2528L19.2999 13.0843L20.1499 12.2563C20.2559 12.1543 20.331 12.0244 20.3663 11.8816C20.4017 11.7388 20.396 11.5889 20.3499 11.4493ZM18.5219 12.4493C18.4308 12.5379 18.3626 12.6474 18.3233 12.7683C18.284 12.8893 18.2748 13.018 18.2964 13.1433L18.4419 13.9933L17.6774 13.5933C17.5649 13.5341 17.4398 13.5032 17.3127 13.5032C17.1856 13.5032 17.0604 13.5341 16.9479 13.5933L16.1839 13.9933L16.3294 13.1433C16.3512 13.0179 16.342 12.8891 16.3027 12.7681C16.2634 12.6471 16.1952 12.5375 16.1039 12.4488L15.4859 11.8443L16.3409 11.7198C16.4667 11.7014 16.5861 11.6527 16.6888 11.578C16.7916 11.5033 16.8747 11.4047 16.9309 11.2908L17.3129 10.5168L17.6949 11.2913C17.7514 11.4052 17.8347 11.5037 17.9376 11.5784C18.0405 11.653 18.1601 11.7015 18.2859 11.7198L19.1399 11.8443L18.5219 12.4493Z" fill="#C9982C"/>
<path d="M13.6903 12.361L12.8983 12.2455L12.5433 11.5265C12.4848 11.4078 12.3942 11.3078 12.2818 11.2378C12.1694 11.1679 12.0397 11.1309 11.9073 11.1309C11.7749 11.1309 11.6452 11.1679 11.5328 11.2378C11.4204 11.3078 11.3298 11.4078 11.2713 11.5265L10.9163 12.2455L10.1233 12.361C9.99231 12.3799 9.86922 12.4351 9.76797 12.5204C9.66672 12.6056 9.59136 12.7175 9.55041 12.8434C9.50946 12.9693 9.50456 13.1041 9.53627 13.2326C9.56797 13.3611 9.63501 13.4781 9.72981 13.5705L10.3038 14.1305L10.1683 14.921C10.1455 15.0517 10.1597 15.1861 10.2094 15.3091C10.2591 15.432 10.3422 15.5386 10.4494 15.6167C10.5566 15.6948 10.6836 15.7413 10.8159 15.7509C10.9481 15.7605 11.0805 15.7328 11.1978 15.671L11.9073 15.298L12.6178 15.6715C12.7348 15.7336 12.8669 15.7614 12.999 15.7516C13.1311 15.7419 13.2577 15.6951 13.3643 15.6165C13.4717 15.5392 13.5552 15.4332 13.6051 15.3106C13.655 15.188 13.6692 15.0539 13.6463 14.9235L13.5108 14.133L14.0853 13.573C14.1801 13.4806 14.2471 13.3636 14.2788 13.2351C14.3106 13.1066 14.3057 12.9718 14.2647 12.8459C14.2238 12.72 14.1484 12.6081 14.0471 12.5229C13.9459 12.4376 13.8228 12.3824 13.6918 12.3635L13.6903 12.361ZM12.7008 13.522C12.6188 13.6024 12.5576 13.7015 12.5223 13.8108C12.487 13.9201 12.4788 14.0363 12.4983 14.1495L12.5603 14.51L12.2378 14.3405C12.1359 14.2865 12.0224 14.2582 11.9071 14.2582C11.7917 14.2582 11.6782 14.2865 11.5763 14.3405L11.2523 14.5105L11.3143 14.1505C11.3338 14.0371 11.3255 13.9206 11.2899 13.8111C11.2544 13.7016 11.1927 13.6024 11.1103 13.522L10.8488 13.2665L11.2098 13.2165C11.3238 13.1999 11.432 13.1559 11.5252 13.0882C11.6184 13.0205 11.6937 12.9312 11.7448 12.828L11.9058 12.4995L12.0683 12.8285C12.1192 12.9315 12.1943 13.0205 12.2872 13.0879C12.3802 13.1554 12.4882 13.1991 12.6018 13.2155L12.9638 13.268L12.7008 13.522Z" fill="#C9982C"/>
<path d="M24.5034 12.3611L23.7099 12.2456L23.3554 11.5266C23.297 11.4079 23.2064 11.3078 23.0941 11.2379C22.9817 11.1679 22.852 11.1309 22.7196 11.1309C22.5873 11.1309 22.4575 11.1679 22.3452 11.2379C22.2328 11.3078 22.1423 11.4079 22.0839 11.5266L21.7289 12.2456L20.9354 12.3611C20.8044 12.3801 20.6814 12.4354 20.5802 12.5207C20.479 12.606 20.4037 12.7178 20.3628 12.8437C20.3219 12.9696 20.3171 13.1043 20.3488 13.2328C20.3805 13.3613 20.4476 13.4783 20.5424 13.5706L21.1164 14.1306L20.9804 14.9211C20.9575 15.0518 20.9717 15.1862 21.0214 15.3092C21.0711 15.4322 21.1543 15.5387 21.2615 15.6168C21.3687 15.6949 21.4956 15.7414 21.6279 15.751C21.7602 15.7606 21.8925 15.7329 22.0099 15.6711L22.7199 15.2981L23.4299 15.6716C23.5469 15.7337 23.6791 15.7615 23.8113 15.7517C23.9434 15.742 24.0702 15.6952 24.1769 15.6166C24.2843 15.5393 24.3678 15.4333 24.4176 15.3107C24.4675 15.1882 24.4818 15.054 24.4589 14.9236L24.3234 14.1331L24.8979 13.5731C24.9927 13.4807 25.0597 13.3636 25.0914 13.2351C25.1231 13.1065 25.1181 12.9717 25.0771 12.8458C25.0361 12.7199 24.9607 12.6081 24.8594 12.5228C24.7581 12.4376 24.6349 12.3825 24.5039 12.3636L24.5034 12.3611ZM23.5139 13.5221C23.4319 13.6025 23.3707 13.7015 23.3354 13.8107C23.3002 13.9199 23.2919 14.036 23.3114 14.1491L23.3734 14.5096L23.0509 14.3401C22.949 14.2861 22.8354 14.2578 22.7201 14.2578C22.6048 14.2578 22.4912 14.2861 22.3894 14.3401L22.0654 14.5101L22.1269 14.1501C22.1465 14.0367 22.1382 13.9203 22.1027 13.8108C22.0673 13.7013 22.0057 13.602 21.9234 13.5216L21.6614 13.2661L22.0224 13.2161C22.1364 13.1996 22.2446 13.1556 22.3379 13.088C22.4311 13.0203 22.5064 12.9309 22.5574 12.8276L22.7194 12.4996L22.8814 12.8286C22.9324 12.9316 23.0076 13.0206 23.1006 13.088C23.1937 13.1554 23.3017 13.1992 23.4154 13.2156L23.7769 13.2681L23.5139 13.5221Z" fill="#C9982C"/>
<path d="M28.6211 11.709C28.4885 11.709 28.3613 11.7617 28.2675 11.8554C28.1738 11.9492 28.1211 12.0764 28.1211 12.209V12.765C28.1211 12.8976 28.1738 13.0248 28.2675 13.1185C28.3613 13.2123 28.4885 13.265 28.6211 13.265C28.7537 13.265 28.8809 13.2123 28.9746 13.1185C29.0684 13.0248 29.1211 12.8976 29.1211 12.765V12.209C29.1211 12.0764 29.0684 11.9492 28.9746 11.8554C28.8809 11.7617 28.7537 11.709 28.6211 11.709Z" fill="#C9982C"/>
<path d="M28.6211 14.1719C28.4885 14.1719 28.3613 14.2246 28.2675 14.3183C28.1738 14.4121 28.1211 14.5393 28.1211 14.6719V19.4904C28.1211 19.623 28.1738 19.7502 28.2675 19.8439C28.3613 19.9377 28.4885 19.9904 28.6211 19.9904C28.7537 19.9904 28.8809 19.9377 28.9746 19.8439C29.0684 19.7502 29.1211 19.623 29.1211 19.4904V14.6719C29.1211 14.5393 29.0684 14.4121 28.9746 14.3183C28.8809 14.2246 28.7537 14.1719 28.6211 14.1719Z" fill="#C9982C"/>
<path d="M8.60557 4.94913C8.51181 4.85539 8.38466 4.80273 8.25207 4.80273C8.11949 4.80273 7.99234 4.85539 7.89857 4.94913L5.71307 7.13513L4.79657 6.21613C4.70227 6.12505 4.57597 6.07465 4.44487 6.07579C4.31378 6.07693 4.18837 6.12951 4.09567 6.22222C4.00296 6.31492 3.95038 6.44033 3.94924 6.57143C3.9481 6.70253 3.9985 6.82883 4.08957 6.92313L5.35957 8.19313C5.45334 8.28686 5.58049 8.33952 5.71307 8.33952C5.84566 8.33952 5.97281 8.28686 6.06657 8.19313L8.60557 5.65363C8.69855 5.55997 8.75072 5.43335 8.75072 5.30138C8.75072 5.16941 8.69855 5.04279 8.60557 4.94913Z" fill="#C9982C"/>
</svg>
